{
	"asset":{
		"generator":"Khronos glTF Blender I/O v4.3.47",
		"version":"2.0"
	},
	"scene":0,
	"scenes":[
		{
			"name":"Scene",
			"nodes":[
				0,
				1,
				2,
				3,
				4,
				5
			]
		}
	],
	"nodes":[
		{
			"mesh":0,
			"name":"Ground"
		},
		{
			"mesh":1,
			"name":"Water"
		},
		{
			"mesh":2,
			"name":"Icosphere",
			"translation":[
				0,
				2.8111114501953125,
				0
			]
		},
		{
			"mesh":3,
			"name":"Cube",
			"translation":[
				7.469066143035889,
				0.8095661401748657,
				-2.082047700881958
			]
		},
		{
			"mesh":4,
			"name":"Cube.001",
			"translation":[
				7.469066619873047,
				0.9333956837654114,
				4.504687309265137
			]
		},
		{
			"mesh":5,
			"name":"Cube.002",
			"translation":[
				7.469066619873047,
				0.9333956837654114,
				4.504687309265137
			]
		}
	],
	"materials":[
		{
			"doubleSided":true,
			"name":"Sand_1",
			"pbrMetallicRoughness":{
				"baseColorFactor":[
					0.800000011920929,
					0.800000011920929,
					0.800000011920929,
					1
				],
				"metallicFactor":0,
				"roughnessFactor":0.5
			}
		},
		{
			"doubleSided":true,
			"name":"Water_1",
			"pbrMetallicRoughness":{
				"baseColorFactor":[
					0.800000011920929,
					0.800000011920929,
					0.800000011920929,
					1
				],
				"metallicFactor":0,
				"roughnessFactor":0.5
			}
		},
		{
			"doubleSided":true,
			"name":"Rock_1",
			"pbrMetallicRoughness":{
				"baseColorFactor":[
					0.800000011920929,
					0.800000011920929,
					0.800000011920929,
					1
				],
				"metallicFactor":0,
				"roughnessFactor":0.5
			}
		},
		{
			"doubleSided":true,
			"name":"Planks_1",
			"pbrMetallicRoughness":{
				"baseColorFactor":[
					0.800000011920929,
					0.800000011920929,
					0.800000011920929,
					1
				],
				"metallicFactor":0,
				"roughnessFactor":0.5
			}
		},
		{
			"doubleSided":true,
			"name":"Wood_1",
			"pbrMetallicRoughness":{
				"baseColorFactor":[
					0.800000011920929,
					0.800000011920929,
					0.800000011920929,
					1
				],
				"metallicFactor":0,
				"roughnessFactor":0.5
			}
		},
		{
			"doubleSided":true,
			"name":"Bark_1",
			"pbrMetallicRoughness":{
				"baseColorFactor":[
					0.800000011920929,
					0.800000011920929,
					0.800000011920929,
					1
				],
				"metallicFactor":0,
				"roughnessFactor":0.5
			}
		},
		{
			"doubleSided":true,
			"name":"Leaf_1",
			"pbrMetallicRoughness":{
				"baseColorFactor":[
					0.800000011920929,
					0.800000011920929,
					0.800000011920929,
					1
				],
				"metallicFactor":0,
				"roughnessFactor":0.5
			}
		}
	],
	"meshes":[
		{
			"name":"Plane",
			"primitives":[
				{
					"attributes":{
						"POSITION":0,
						"NORMAL":1,
						"TEXCOORD_0":2
					},
					"indices":3,
					"material":0
				}
			]
		},
		{
			"name":"Plane.001",
			"primitives":[
				{
					"attributes":{
						"POSITION":4,
						"NORMAL":5,
						"TEXCOORD_0":6
					},
					"indices":7,
					"material":1
				}
			]
		},
		{
			"name":"Icosphere",
			"primitives":[
				{
					"attributes":{
						"POSITION":8,
						"NORMAL":9,
						"TEXCOORD_0":10
					},
					"indices":11,
					"material":2
				}
			]
		},
		{
			"name":"Cube.001",
			"primitives":[
				{
					"attributes":{
						"POSITION":12,
						"NORMAL":13,
						"TEXCOORD_0":14
					},
					"indices":15,
					"material":3
				}
			]
		},
		{
			"name":"Cube.002",
			"primitives":[
				{
					"attributes":{
						"POSITION":16,
						"NORMAL":17,
						"TEXCOORD_0":18
					},
					"indices":19,
					"material":4
				}
			]
		},
		{
			"name":"Cube.003",
			"primitives":[
				{
					"attributes":{
						"POSITION":20,
						"NORMAL":21,
						"TEXCOORD_0":22
					},
					"indices":23,
					"material":5
				},
				{
					"attributes":{
						"POSITION":24,
						"NORMAL":25,
						"TEXCOORD_0":26
					},
					"indices":27,
					"material":6
				}
			]
		}
	],
	"accessors":[
		{
			"bufferView":0,
			"componentType":5126,
			"count":19959,
			"max":[
				14.9404296875,
				1.708795189857483,
				14.940394401550293
			],
			"min":[
				-14.940394401550293,
				-0.11919675767421722,
				-14.953800201416016
			],
			"type":"VEC3"
		},
		{
			"bufferView":1,
			"componentType":5126,
			"count":19959,
			"type":"VEC3"
		},
		{
			"bufferView":2,
			"componentType":5126,
			"count":19959,
			"type":"VEC2"
		},
		{
			"bufferView":3,
			"componentType":5123,
			"count":21012,
			"type":"SCALAR"
		},
		{
			"bufferView":4,
			"componentType":5126,
			"count":4,
			"max":[
				15.249505996704102,
				0.561244547367096,
				15.249505996704102
			],
			"min":[
				-15.249505996704102,
				0.561244547367096,
				-15.249505996704102
			],
			"type":"VEC3"
		},
		{
			"bufferView":5,
			"componentType":5126,
			"count":4,
			"type":"VEC3"
		},
		{
			"bufferView":6,
			"componentType":5126,
			"count":4,
			"type":"VEC2"
		},
		{
			"bufferView":7,
			"componentType":5123,
			"count":6,
			"type":"SCALAR"
		},
		{
			"bufferView":8,
			"componentType":5126,
			"count":5760,
			"max":[
				2.195035934448242,
				1.0871829986572266,
				8.216008186340332
			],
			"min":[
				-10.560420036315918,
				-3.7526886463165283,
				-9.06223201751709
			],
			"type":"VEC3"
		},
		{
			"bufferView":9,
			"componentType":5126,
			"count":5760,
			"type":"VEC3"
		},
		{
			"bufferView":10,
			"componentType":5126,
			"count":5760,
			"type":"VEC2"
		},
		{
			"bufferView":11,
			"componentType":5123,
			"count":8640,
			"type":"SCALAR"
		},
		{
			"bufferView":12,
			"componentType":5126,
			"count":456,
			"max":[
				1.3358159065246582,
				0.31311941146850586,
				6.835980415344238
			],
			"min":[
				-1.3358149528503418,
				-0.8820613026618958,
				-1
			],
			"type":"VEC3"
		},
		{
			"bufferView":13,
			"componentType":5126,
			"count":456,
			"type":"VEC3"
		},
		{
			"bufferView":14,
			"componentType":5126,
			"count":456,
			"type":"VEC2"
		},
		{
			"bufferView":15,
			"componentType":5123,
			"count":828,
			"type":"SCALAR"
		},
		{
			"bufferView":16,
			"componentType":5126,
			"count":148,
			"max":[
				2.416334629058838,
				-0.037086665630340576,
				3.2595348358154297
			],
			"min":[
				-1.7019703388214111,
				-0.7547443509101868,
				1.0733927488327026
			],
			"type":"VEC3"
		},
		{
			"bufferView":17,
			"componentType":5126,
			"count":148,
			"type":"VEC3"
		},
		{
			"bufferView":18,
			"componentType":5126,
			"count":148,
			"type":"VEC2"
		},
		{
			"bufferView":19,
			"componentType":5123,
			"count":288,
			"type":"SCALAR"
		},
		{
			"bufferView":20,
			"componentType":5126,
			"count":3120,
			"max":[
				-2.1495399475097656,
				4.571953773498535,
				1.343173861503601
			],
			"min":[
				-14.979366302490234,
				-0.13051748275756836,
				-12.795002937316895
			],
			"type":"VEC3"
		},
		{
			"bufferView":21,
			"componentType":5126,
			"count":3120,
			"type":"VEC3"
		},
		{
			"bufferView":22,
			"componentType":5126,
			"count":3120,
			"type":"VEC2"
		},
		{
			"bufferView":23,
			"componentType":5123,
			"count":4920,
			"type":"SCALAR"
		},
		{
			"bufferView":24,
			"componentType":5126,
			"count":2520,
			"max":[
				-0.793937087059021,
				5.452821254730225,
				2.8795347213745117
			],
			"min":[
				-16.48424530029297,
				2.6833620071411133,
				-14.210333824157715
			],
			"type":"VEC3"
		},
		{
			"bufferView":25,
			"componentType":5126,
			"count":2520,
			"type":"VEC3"
		},
		{
			"bufferView":26,
			"componentType":5126,
			"count":2520,
			"type":"VEC2"
		},
		{
			"bufferView":27,
			"componentType":5123,
			"count":3780,
			"type":"SCALAR"
		}
	],
	"bufferViews":[
		{
			"buffer":0,
			"byteLength":239508,
			"byteOffset":0,
			"target":34962
		},
		{
			"buffer":0,
			"byteLength":239508,
			"byteOffset":239508,
			"target":34962
		},
		{
			"buffer":0,
			"byteLength":159672,
			"byteOffset":479016,
			"target":34962
		},
		{
			"buffer":0,
			"byteLength":42024,
			"byteOffset":638688,
			"target":34963
		},
		{
			"buffer":0,
			"byteLength":48,
			"byteOffset":680712,
			"target":34962
		},
		{
			"buffer":0,
			"byteLength":48,
			"byteOffset":680760,
			"target":34962
		},
		{
			"buffer":0,
			"byteLength":32,
			"byteOffset":680808,
			"target":34962
		},
		{
			"buffer":0,
			"byteLength":12,
			"byteOffset":680840,
			"target":34963
		},
		{
			"buffer":0,
			"byteLength":69120,
			"byteOffset":680852,
			"target":34962
		},
		{
			"buffer":0,
			"byteLength":69120,
			"byteOffset":749972,
			"target":34962
		},
		{
			"buffer":0,
			"byteLength":46080,
			"byteOffset":819092,
			"target":34962
		},
		{
			"buffer":0,
			"byteLength":17280,
			"byteOffset":865172,
			"target":34963
		},
		{
			"buffer":0,
			"byteLength":5472,
			"byteOffset":882452,
			"target":34962
		},
		{
			"buffer":0,
			"byteLength":5472,
			"byteOffset":887924,
			"target":34962
		},
		{
			"buffer":0,
			"byteLength":3648,
			"byteOffset":893396,
			"target":34962
		},
		{
			"buffer":0,
			"byteLength":1656,
			"byteOffset":897044,
			"target":34963
		},
		{
			"buffer":0,
			"byteLength":1776,
			"byteOffset":898700,
			"target":34962
		},
		{
			"buffer":0,
			"byteLength":1776,
			"byteOffset":900476,
			"target":34962
		},
		{
			"buffer":0,
			"byteLength":1184,
			"byteOffset":902252,
			"target":34962
		},
		{
			"buffer":0,
			"byteLength":576,
			"byteOffset":903436,
			"target":34963
		},
		{
			"buffer":0,
			"byteLength":37440,
			"byteOffset":904012,
			"target":34962
		},
		{
			"buffer":0,
			"byteLength":37440,
			"byteOffset":941452,
			"target":34962
		},
		{
			"buffer":0,
			"byteLength":24960,
			"byteOffset":978892,
			"target":34962
		},
		{
			"buffer":0,
			"byteLength":9840,
			"byteOffset":1003852,
			"target":34963
		},
		{
			"buffer":0,
			"byteLength":30240,
			"byteOffset":1013692,
			"target":34962
		},
		{
			"buffer":0,
			"byteLength":30240,
			"byteOffset":1043932,
			"target":34962
		},
		{
			"buffer":0,
			"byteLength":20160,
			"byteOffset":1074172,
			"target":34962
		},
		{
			"buffer":0,
			"byteLength":7560,
			"byteOffset":1094332,
			"target":34963
		}
	],
	"buffers":[
		{
			"byteLength":1101892,
			"uri":"Island.bin"
		}
	]
}
