{
	"asset":{
		"generator":"Khronos glTF Blender I/O v4.3.47",
		"version":"2.0"
	},
	"scene":0,
	"scenes":[
		{
			"name":"Scene",
			"nodes":[
				0,
				1,
				2,
				3,
				4,
				5,
				6,
				7,
				8,
				9,
				10,
				11,
				12,
				13,
				14,
				15,
				16,
				17,
				18,
				19,
				20,
				21,
				22,
				23,
				24,
				25,
				26,
				27,
				28,
				29,
				30,
				31,
				32,
				33,
				34,
				35,
				36,
				37,
				38,
				39,
				40,
				41,
				42,
				43,
				44,
				45,
				46,
				47,
				48,
				49,
				50,
				51,
				52,
				53,
				54,
				55,
				56,
				57,
				58,
				59,
				60,
				61,
				62,
				63,
				64,
				65,
				66,
				67,
				68,
				69,
				70,
				71,
				72,
				73,
				74,
				75,
				76,
				77,
				78,
				79,
				80,
				81,
				82,
				83,
				84,
				85,
				86,
				87,
				88,
				89,
				90,
				91,
				92,
				93,
				94,
				95,
				96,
				97,
				98,
				99,
				100,
				101,
				102,
				103,
				104,
				105
			]
		}
	],
	"nodes":[
		{
			"mesh":0,
			"name":"Cube",
			"translation":[
				0,
				-0.5,
				10
			]
		},
		{
			"mesh":1,
			"name":"Cube.001",
			"scale":[
				2.0967917442321777,
				2.0967917442321777,
				2.0967917442321777
			],
			"translation":[
				0,
				2.4982218742370605,
				-15.423940658569336
			]
		},
		{
			"mesh":2,
			"name":"Cube.002",
			"scale":[
				2.0967917442321777,
				2.0967917442321777,
				2.0967917442321777
			],
			"translation":[
				-10,
				4.4982218742370605,
				-15.423940658569336
			]
		},
		{
			"mesh":3,
			"name":"Cube.003",
			"scale":[
				2.0967917442321777,
				2.0967917442321777,
				2.0967917442321777
			],
			"translation":[
				10,
				4.4982218742370605,
				-15.423940658569336
			]
		},
		{
			"mesh":4,
			"name":"Cube.004",
			"translation":[
				-15,
				-0.5,
				-8
			]
		},
		{
			"mesh":5,
			"name":"Cube.005",
			"rotation":[
				0,
				0,
				-0.04361938685178757,
				0.9990482330322266
			],
			"translation":[
				-15.024551391601562,
				-0.06231868267059326,
				-4
			]
		},
		{
			"mesh":6,
			"name":"Cube.006",
			"rotation":[
				0,
				0,
				-0.08715573698282242,
				0.9961947798728943
			],
			"translation":[
				-15.010862350463867,
				0.3758370280265808,
				0
			]
		},
		{
			"mesh":7,
			"name":"Cube.007",
			"rotation":[
				0,
				0,
				-0.13052619993686676,
				0.9914448857307434
			],
			"translation":[
				-14.959037780761719,
				0.8111323714256287,
				4
			]
		},
		{
			"mesh":8,
			"name":"Cube.008",
			"rotation":[
				0,
				0,
				-0.1736481636762619,
				0.9848077893257141
			],
			"translation":[
				-14.86947250366211,
				1.2402544021606445,
				8
			]
		},
		{
			"mesh":9,
			"name":"Cube.009",
			"rotation":[
				0,
				0,
				-0.2164396345615387,
				0.976296067237854
			],
			"translation":[
				-14.742847442626953,
				1.6599376201629639,
				12
			]
		},
		{
			"mesh":10,
			"name":"Cube.010",
			"rotation":[
				0,
				0,
				-0.2588190734386444,
				0.965925931930542
			],
			"translation":[
				-14.580126762390137,
				2.0669872760772705,
				16
			]
		},
		{
			"mesh":11,
			"name":"Cube.011",
			"rotation":[
				0,
				0,
				-0.30070579051971436,
				0.9537169933319092
			],
			"translation":[
				-14.382548332214355,
				2.458306312561035,
				20
			]
		},
		{
			"mesh":12,
			"name":"Cube.012",
			"rotation":[
				0,
				0,
				-0.3420201539993286,
				0.9396926760673523
			],
			"translation":[
				-14.151616096496582,
				2.8309154510498047,
				24
			]
		},
		{
			"mesh":13,
			"name":"Cube.013",
			"rotation":[
				0,
				0,
				-0.3826834559440613,
				0.9238795638084412
			],
			"translation":[
				-13.889087677001953,
				3.181980609893799,
				28
			]
		},
		{
			"mesh":14,
			"name":"Cube.014",
			"translation":[
				10.5,
				-0.5,
				9
			]
		},
		{
			"mesh":15,
			"name":"Cube.015",
			"translation":[
				10.25,
				-0.5,
				13
			]
		},
		{
			"mesh":16,
			"name":"Cube.016",
			"translation":[
				10.5,
				-0.5,
				21
			]
		},
		{
			"mesh":17,
			"name":"Cube.017",
			"translation":[
				10.25,
				-0.5,
				25
			]
		},
		{
			"mesh":18,
			"name":"Cube.018",
			"translation":[
				10.5,
				-0.5,
				-3
			]
		},
		{
			"mesh":19,
			"name":"Cube.019",
			"translation":[
				10.25,
				-0.5,
				1
			]
		},
		{
			"mesh":20,
			"name":"Cube.020",
			"translation":[
				11.5,
				0,
				9
			]
		},
		{
			"mesh":21,
			"name":"Cube.021",
			"translation":[
				12.5,
				0.5,
				9
			]
		},
		{
			"mesh":22,
			"name":"Cube.022",
			"translation":[
				13.5,
				1,
				9
			]
		},
		{
			"mesh":23,
			"name":"Cube.023",
			"translation":[
				14.5,
				1.5,
				9
			]
		},
		{
			"mesh":24,
			"name":"Cube.024",
			"translation":[
				15.5,
				2,
				9
			]
		},
		{
			"mesh":25,
			"name":"Cube.025",
			"translation":[
				16.5,
				2.5,
				9
			]
		},
		{
			"mesh":26,
			"name":"Cube.026",
			"translation":[
				17.5,
				3,
				9
			]
		},
		{
			"mesh":27,
			"name":"Cube.027",
			"translation":[
				18.5,
				3.5,
				9
			]
		},
		{
			"mesh":28,
			"name":"Cube.028",
			"translation":[
				19.5,
				4,
				9
			]
		},
		{
			"mesh":29,
			"name":"Cube.029",
			"translation":[
				10.75,
				-0.25,
				13
			]
		},
		{
			"mesh":30,
			"name":"Cube.030",
			"translation":[
				11.25,
				0,
				13
			]
		},
		{
			"mesh":31,
			"name":"Cube.031",
			"translation":[
				11.75,
				0.25,
				13
			]
		},
		{
			"mesh":32,
			"name":"Cube.032",
			"translation":[
				12.25,
				0.5,
				13
			]
		},
		{
			"mesh":33,
			"name":"Cube.033",
			"translation":[
				12.75,
				0.75,
				13
			]
		},
		{
			"mesh":34,
			"name":"Cube.034",
			"translation":[
				13.25,
				1,
				13
			]
		},
		{
			"mesh":35,
			"name":"Cube.035",
			"translation":[
				13.75,
				1.25,
				13
			]
		},
		{
			"mesh":36,
			"name":"Cube.036",
			"translation":[
				14.25,
				1.5,
				13
			]
		},
		{
			"mesh":37,
			"name":"Cube.037",
			"translation":[
				14.75,
				1.75,
				13
			]
		},
		{
			"mesh":38,
			"name":"Cube.038",
			"translation":[
				15.25,
				2,
				13
			]
		},
		{
			"mesh":39,
			"name":"Cube.039",
			"translation":[
				15.75,
				2.25,
				13
			]
		},
		{
			"mesh":40,
			"name":"Cube.040",
			"translation":[
				16.25,
				2.5,
				13
			]
		},
		{
			"mesh":41,
			"name":"Cube.041",
			"translation":[
				16.75,
				2.75,
				13
			]
		},
		{
			"mesh":42,
			"name":"Cube.042",
			"translation":[
				17.25,
				3,
				13
			]
		},
		{
			"mesh":43,
			"name":"Cube.043",
			"translation":[
				17.75,
				3.25,
				13
			]
		},
		{
			"mesh":44,
			"name":"Cube.044",
			"translation":[
				18.25,
				3.5,
				13
			]
		},
		{
			"mesh":45,
			"name":"Cube.045",
			"translation":[
				18.75,
				3.75,
				13
			]
		},
		{
			"mesh":46,
			"name":"Cube.046",
			"translation":[
				19.25,
				4,
				13
			]
		},
		{
			"mesh":47,
			"name":"Cube.047",
			"translation":[
				11.5,
				0.5,
				21
			]
		},
		{
			"mesh":48,
			"name":"Cube.048",
			"translation":[
				12.5,
				1.5,
				21
			]
		},
		{
			"mesh":49,
			"name":"Cube.049",
			"translation":[
				13.5,
				2.5,
				21
			]
		},
		{
			"mesh":50,
			"name":"Cube.050",
			"translation":[
				14.5,
				3.5,
				21
			]
		},
		{
			"mesh":51,
			"name":"Cube.051",
			"translation":[
				15.5,
				4.5,
				21
			]
		},
		{
			"mesh":52,
			"name":"Cube.052",
			"translation":[
				16.5,
				5.5,
				21
			]
		},
		{
			"mesh":53,
			"name":"Cube.053",
			"translation":[
				17.5,
				6.5,
				21
			]
		},
		{
			"mesh":54,
			"name":"Cube.054",
			"translation":[
				10.75,
				0,
				25
			]
		},
		{
			"mesh":55,
			"name":"Cube.055",
			"translation":[
				11.25,
				0.5,
				25
			]
		},
		{
			"mesh":56,
			"name":"Cube.056",
			"translation":[
				11.75,
				1,
				25
			]
		},
		{
			"mesh":57,
			"name":"Cube.057",
			"translation":[
				12.25,
				1.5,
				25
			]
		},
		{
			"mesh":58,
			"name":"Cube.058",
			"translation":[
				12.75,
				2,
				25
			]
		},
		{
			"mesh":59,
			"name":"Cube.059",
			"translation":[
				13.25,
				2.5,
				25
			]
		},
		{
			"mesh":60,
			"name":"Cube.060",
			"translation":[
				13.75,
				3,
				25
			]
		},
		{
			"mesh":61,
			"name":"Cube.061",
			"translation":[
				14.25,
				3.5,
				25
			]
		},
		{
			"mesh":62,
			"name":"Cube.062",
			"translation":[
				14.75,
				4,
				25
			]
		},
		{
			"mesh":63,
			"name":"Cube.063",
			"translation":[
				15.25,
				4.5,
				25
			]
		},
		{
			"mesh":64,
			"name":"Cube.064",
			"translation":[
				15.75,
				5,
				25
			]
		},
		{
			"mesh":65,
			"name":"Cube.065",
			"translation":[
				16.25,
				5.5,
				25
			]
		},
		{
			"mesh":66,
			"name":"Cube.066",
			"translation":[
				16.75,
				6,
				25
			]
		},
		{
			"mesh":67,
			"name":"Cube.067",
			"translation":[
				17.25,
				6.5,
				25
			]
		},
		{
			"mesh":68,
			"name":"Cube.068",
			"translation":[
				11.5,
				-0.30000001192092896,
				-3
			]
		},
		{
			"mesh":69,
			"name":"Cube.069",
			"translation":[
				12.5,
				-0.10000298172235489,
				-3
			]
		},
		{
			"mesh":70,
			"name":"Cube.070",
			"translation":[
				13.5,
				0.10000002384185791,
				-3
			]
		},
		{
			"mesh":71,
			"name":"Cube.071",
			"translation":[
				14.5,
				0.29999998211860657,
				-3
			]
		},
		{
			"mesh":72,
			"name":"Cube.072",
			"translation":[
				15.5,
				0.5,
				-3
			]
		},
		{
			"mesh":73,
			"name":"Cube.073",
			"translation":[
				16.5,
				0.7000000476837158,
				-3
			]
		},
		{
			"mesh":74,
			"name":"Cube.074",
			"translation":[
				17.5,
				0.9000000953674316,
				-3
			]
		},
		{
			"mesh":75,
			"name":"Cube.075",
			"translation":[
				18.5,
				1.1000001430511475,
				-3
			]
		},
		{
			"mesh":76,
			"name":"Cube.076",
			"translation":[
				19.5,
				1.3000001907348633,
				-3
			]
		},
		{
			"mesh":77,
			"name":"Cube.077",
			"translation":[
				10.75,
				-0.3999999761581421,
				1
			]
		},
		{
			"mesh":78,
			"name":"Cube.078",
			"translation":[
				11.25,
				-0.30000001192092896,
				1
			]
		},
		{
			"mesh":79,
			"name":"Cube.079",
			"translation":[
				11.75,
				-0.19999998807907104,
				1
			]
		},
		{
			"mesh":80,
			"name":"Cube.080",
			"translation":[
				12.25,
				-0.10000298172235489,
				1
			]
		},
		{
			"mesh":81,
			"name":"Cube.081",
			"translation":[
				12.75,
				0,
				1
			]
		},
		{
			"mesh":82,
			"name":"Cube.082",
			"translation":[
				13.25,
				0.10000002384185791,
				1
			]
		},
		{
			"mesh":83,
			"name":"Cube.083",
			"translation":[
				13.75,
				0.20000004768371582,
				1
			]
		},
		{
			"mesh":84,
			"name":"Cube.084",
			"translation":[
				14.25,
				0.30000007152557373,
				1
			]
		},
		{
			"mesh":85,
			"name":"Cube.085",
			"translation":[
				14.75,
				0.40000009536743164,
				1
			]
		},
		{
			"mesh":86,
			"name":"Cube.086",
			"translation":[
				15.25,
				0.5000001192092896,
				1
			]
		},
		{
			"mesh":87,
			"name":"Cube.087",
			"translation":[
				15.75,
				0.6000001430511475,
				1
			]
		},
		{
			"mesh":88,
			"name":"Cube.088",
			"translation":[
				16.25,
				0.7000001668930054,
				1
			]
		},
		{
			"mesh":89,
			"name":"Cube.089",
			"translation":[
				16.75,
				0.8000001907348633,
				1
			]
		},
		{
			"mesh":90,
			"name":"Cube.090",
			"translation":[
				17.25,
				0.9000002145767212,
				1
			]
		},
		{
			"mesh":91,
			"name":"Cube.091",
			"translation":[
				17.75,
				1.000000238418579,
				1
			]
		},
		{
			"mesh":92,
			"name":"Cube.092",
			"translation":[
				18.25,
				1.1000003814697266,
				1
			]
		},
		{
			"mesh":93,
			"name":"Cube.093",
			"translation":[
				18.75,
				1.200000286102295,
				1
			]
		},
		{
			"mesh":94,
			"name":"Cube.094",
			"translation":[
				19.25,
				1.3000003099441528,
				1
			]
		},
		{
			"mesh":95,
			"name":"Cube.095",
			"translation":[
				19.75,
				1.4000003337860107,
				1
			]
		},
		{
			"mesh":96,
			"name":"Cube.096",
			"translation":[
				2,
				4.25,
				32
			]
		},
		{
			"mesh":97,
			"name":"Cube.097",
			"rotation":[
				-0.1736481487751007,
				0,
				0,
				0.9848077893257141
			],
			"translation":[
				0,
				0.21419334411621094,
				32.05039596557617
			]
		},
		{
			"mesh":98,
			"name":"Cube.098",
			"translation":[
				0,
				4.5,
				32
			]
		},
		{
			"mesh":99,
			"name":"Cube.099",
			"translation":[
				4,
				4.125,
				32
			]
		},
		{
			"mesh":100,
			"name":"Cube.100",
			"translation":[
				6,
				4.065000057220459,
				32
			]
		},
		{
			"mesh":101,
			"name":"Cube.101",
			"translation":[
				8,
				4.033750057220459,
				32
			]
		},
		{
			"mesh":102,
			"name":"Cube.102",
			"translation":[
				-2,
				4.25,
				32
			]
		},
		{
			"mesh":103,
			"name":"Cube.103",
			"translation":[
				-4,
				4.150000095367432,
				32
			]
		},
		{
			"mesh":104,
			"name":"Cube.104",
			"translation":[
				-6,
				4.050000190734863,
				32
			]
		},
		{
			"mesh":105,
			"name":"Cube.105",
			"translation":[
				-8,
				4.025000095367432,
				32
			]
		}
	],
	"materials":[
		{
			"doubleSided":true,
			"name":"Tile_1",
			"pbrMetallicRoughness":{
				"baseColorFactor":[
					0.800000011920929,
					0.800000011920929,
					0.800000011920929,
					1
				],
				"metallicFactor":0,
				"roughnessFactor":0.5
			}
		}
	],
	"meshes":[
		{
			"name":"Cube.001",
			"primitives":[
				{
					"attributes":{
						"POSITION":0,
						"NORMAL":1,
						"TEXCOORD_0":2
					},
					"indices":3,
					"material":0
				}
			]
		},
		{
			"name":"Cube.002",
			"primitives":[
				{
					"attributes":{
						"POSITION":4,
						"NORMAL":5,
						"TEXCOORD_0":6
					},
					"indices":3,
					"material":0
				}
			]
		},
		{
			"name":"Cube.003",
			"primitives":[
				{
					"attributes":{
						"POSITION":7,
						"NORMAL":8,
						"TEXCOORD_0":9
					},
					"indices":3,
					"material":0
				}
			]
		},
		{
			"name":"Cube.004",
			"primitives":[
				{
					"attributes":{
						"POSITION":10,
						"NORMAL":11,
						"TEXCOORD_0":12
					},
					"indices":13,
					"material":0
				}
			]
		},
		{
			"name":"Cube.007",
			"primitives":[
				{
					"attributes":{
						"POSITION":14,
						"NORMAL":15,
						"TEXCOORD_0":16
					},
					"indices":17,
					"material":0
				}
			]
		},
		{
			"name":"Cube.020",
			"primitives":[
				{
					"attributes":{
						"POSITION":18,
						"NORMAL":19,
						"TEXCOORD_0":20
					},
					"indices":17,
					"material":0
				}
			]
		},
		{
			"name":"Cube.021",
			"primitives":[
				{
					"attributes":{
						"POSITION":21,
						"NORMAL":22,
						"TEXCOORD_0":23
					},
					"indices":17,
					"material":0
				}
			]
		},
		{
			"name":"Cube.022",
			"primitives":[
				{
					"attributes":{
						"POSITION":24,
						"NORMAL":25,
						"TEXCOORD_0":26
					},
					"indices":17,
					"material":0
				}
			]
		},
		{
			"name":"Cube.023",
			"primitives":[
				{
					"attributes":{
						"POSITION":27,
						"NORMAL":28,
						"TEXCOORD_0":29
					},
					"indices":17,
					"material":0
				}
			]
		},
		{
			"name":"Cube.024",
			"primitives":[
				{
					"attributes":{
						"POSITION":30,
						"NORMAL":31,
						"TEXCOORD_0":32
					},
					"indices":17,
					"material":0
				}
			]
		},
		{
			"name":"Cube.025",
			"primitives":[
				{
					"attributes":{
						"POSITION":33,
						"NORMAL":34,
						"TEXCOORD_0":35
					},
					"indices":17,
					"material":0
				}
			]
		},
		{
			"name":"Cube.026",
			"primitives":[
				{
					"attributes":{
						"POSITION":36,
						"NORMAL":37,
						"TEXCOORD_0":38
					},
					"indices":17,
					"material":0
				}
			]
		},
		{
			"name":"Cube.027",
			"primitives":[
				{
					"attributes":{
						"POSITION":39,
						"NORMAL":40,
						"TEXCOORD_0":41
					},
					"indices":17,
					"material":0
				}
			]
		},
		{
			"name":"Cube.028",
			"primitives":[
				{
					"attributes":{
						"POSITION":42,
						"NORMAL":43,
						"TEXCOORD_0":44
					},
					"indices":17,
					"material":0
				}
			]
		},
		{
			"name":"Cube.030",
			"primitives":[
				{
					"attributes":{
						"POSITION":45,
						"NORMAL":46,
						"TEXCOORD_0":47
					},
					"indices":48,
					"material":0
				}
			]
		},
		{
			"name":"Cube.031",
			"primitives":[
				{
					"attributes":{
						"POSITION":49,
						"NORMAL":50,
						"TEXCOORD_0":51
					},
					"indices":48,
					"material":0
				}
			]
		},
		{
			"name":"Cube.032",
			"primitives":[
				{
					"attributes":{
						"POSITION":52,
						"NORMAL":53,
						"TEXCOORD_0":54
					},
					"indices":48,
					"material":0
				}
			]
		},
		{
			"name":"Cube.033",
			"primitives":[
				{
					"attributes":{
						"POSITION":55,
						"NORMAL":56,
						"TEXCOORD_0":57
					},
					"indices":48,
					"material":0
				}
			]
		},
		{
			"name":"Cube.034",
			"primitives":[
				{
					"attributes":{
						"POSITION":58,
						"NORMAL":59,
						"TEXCOORD_0":60
					},
					"indices":48,
					"material":0
				}
			]
		},
		{
			"name":"Cube.035",
			"primitives":[
				{
					"attributes":{
						"POSITION":61,
						"NORMAL":62,
						"TEXCOORD_0":63
					},
					"indices":48,
					"material":0
				}
			]
		},
		{
			"name":"Cube.036",
			"primitives":[
				{
					"attributes":{
						"POSITION":64,
						"NORMAL":65,
						"TEXCOORD_0":66
					},
					"indices":67,
					"material":0
				}
			]
		},
		{
			"name":"Cube.037",
			"primitives":[
				{
					"attributes":{
						"POSITION":68,
						"NORMAL":69,
						"TEXCOORD_0":70
					},
					"indices":67,
					"material":0
				}
			]
		},
		{
			"name":"Cube.038",
			"primitives":[
				{
					"attributes":{
						"POSITION":71,
						"NORMAL":72,
						"TEXCOORD_0":73
					},
					"indices":67,
					"material":0
				}
			]
		},
		{
			"name":"Cube.039",
			"primitives":[
				{
					"attributes":{
						"POSITION":74,
						"NORMAL":75,
						"TEXCOORD_0":76
					},
					"indices":67,
					"material":0
				}
			]
		},
		{
			"name":"Cube.040",
			"primitives":[
				{
					"attributes":{
						"POSITION":77,
						"NORMAL":78,
						"TEXCOORD_0":79
					},
					"indices":67,
					"material":0
				}
			]
		},
		{
			"name":"Cube.041",
			"primitives":[
				{
					"attributes":{
						"POSITION":80,
						"NORMAL":81,
						"TEXCOORD_0":82
					},
					"indices":67,
					"material":0
				}
			]
		},
		{
			"name":"Cube.042",
			"primitives":[
				{
					"attributes":{
						"POSITION":83,
						"NORMAL":84,
						"TEXCOORD_0":85
					},
					"indices":67,
					"material":0
				}
			]
		},
		{
			"name":"Cube.043",
			"primitives":[
				{
					"attributes":{
						"POSITION":86,
						"NORMAL":87,
						"TEXCOORD_0":88
					},
					"indices":67,
					"material":0
				}
			]
		},
		{
			"name":"Cube.044",
			"primitives":[
				{
					"attributes":{
						"POSITION":89,
						"NORMAL":90,
						"TEXCOORD_0":91
					},
					"indices":67,
					"material":0
				}
			]
		},
		{
			"name":"Cube.045",
			"primitives":[
				{
					"attributes":{
						"POSITION":92,
						"NORMAL":93,
						"TEXCOORD_0":94
					},
					"indices":67,
					"material":0
				}
			]
		},
		{
			"name":"Cube.046",
			"primitives":[
				{
					"attributes":{
						"POSITION":95,
						"NORMAL":96,
						"TEXCOORD_0":97
					},
					"indices":67,
					"material":0
				}
			]
		},
		{
			"name":"Cube.047",
			"primitives":[
				{
					"attributes":{
						"POSITION":98,
						"NORMAL":99,
						"TEXCOORD_0":100
					},
					"indices":67,
					"material":0
				}
			]
		},
		{
			"name":"Cube.048",
			"primitives":[
				{
					"attributes":{
						"POSITION":101,
						"NORMAL":102,
						"TEXCOORD_0":103
					},
					"indices":67,
					"material":0
				}
			]
		},
		{
			"name":"Cube.049",
			"primitives":[
				{
					"attributes":{
						"POSITION":104,
						"NORMAL":105,
						"TEXCOORD_0":106
					},
					"indices":67,
					"material":0
				}
			]
		},
		{
			"name":"Cube.050",
			"primitives":[
				{
					"attributes":{
						"POSITION":107,
						"NORMAL":108,
						"TEXCOORD_0":109
					},
					"indices":67,
					"material":0
				}
			]
		},
		{
			"name":"Cube.051",
			"primitives":[
				{
					"attributes":{
						"POSITION":110,
						"NORMAL":111,
						"TEXCOORD_0":112
					},
					"indices":67,
					"material":0
				}
			]
		},
		{
			"name":"Cube.052",
			"primitives":[
				{
					"attributes":{
						"POSITION":113,
						"NORMAL":114,
						"TEXCOORD_0":115
					},
					"indices":67,
					"material":0
				}
			]
		},
		{
			"name":"Cube.053",
			"primitives":[
				{
					"attributes":{
						"POSITION":116,
						"NORMAL":117,
						"TEXCOORD_0":118
					},
					"indices":67,
					"material":0
				}
			]
		},
		{
			"name":"Cube.054",
			"primitives":[
				{
					"attributes":{
						"POSITION":119,
						"NORMAL":120,
						"TEXCOORD_0":121
					},
					"indices":67,
					"material":0
				}
			]
		},
		{
			"name":"Cube.055",
			"primitives":[
				{
					"attributes":{
						"POSITION":122,
						"NORMAL":123,
						"TEXCOORD_0":124
					},
					"indices":67,
					"material":0
				}
			]
		},
		{
			"name":"Cube.056",
			"primitives":[
				{
					"attributes":{
						"POSITION":125,
						"NORMAL":126,
						"TEXCOORD_0":127
					},
					"indices":67,
					"material":0
				}
			]
		},
		{
			"name":"Cube.057",
			"primitives":[
				{
					"attributes":{
						"POSITION":128,
						"NORMAL":129,
						"TEXCOORD_0":130
					},
					"indices":67,
					"material":0
				}
			]
		},
		{
			"name":"Cube.058",
			"primitives":[
				{
					"attributes":{
						"POSITION":131,
						"NORMAL":132,
						"TEXCOORD_0":133
					},
					"indices":67,
					"material":0
				}
			]
		},
		{
			"name":"Cube.059",
			"primitives":[
				{
					"attributes":{
						"POSITION":134,
						"NORMAL":135,
						"TEXCOORD_0":136
					},
					"indices":67,
					"material":0
				}
			]
		},
		{
			"name":"Cube.060",
			"primitives":[
				{
					"attributes":{
						"POSITION":137,
						"NORMAL":138,
						"TEXCOORD_0":139
					},
					"indices":67,
					"material":0
				}
			]
		},
		{
			"name":"Cube.061",
			"primitives":[
				{
					"attributes":{
						"POSITION":140,
						"NORMAL":141,
						"TEXCOORD_0":142
					},
					"indices":67,
					"material":0
				}
			]
		},
		{
			"name":"Cube.062",
			"primitives":[
				{
					"attributes":{
						"POSITION":143,
						"NORMAL":144,
						"TEXCOORD_0":145
					},
					"indices":67,
					"material":0
				}
			]
		},
		{
			"name":"Cube.063",
			"primitives":[
				{
					"attributes":{
						"POSITION":146,
						"NORMAL":147,
						"TEXCOORD_0":148
					},
					"indices":67,
					"material":0
				}
			]
		},
		{
			"name":"Cube.064",
			"primitives":[
				{
					"attributes":{
						"POSITION":149,
						"NORMAL":150,
						"TEXCOORD_0":151
					},
					"indices":67,
					"material":0
				}
			]
		},
		{
			"name":"Cube.065",
			"primitives":[
				{
					"attributes":{
						"POSITION":152,
						"NORMAL":153,
						"TEXCOORD_0":154
					},
					"indices":67,
					"material":0
				}
			]
		},
		{
			"name":"Cube.066",
			"primitives":[
				{
					"attributes":{
						"POSITION":155,
						"NORMAL":156,
						"TEXCOORD_0":157
					},
					"indices":67,
					"material":0
				}
			]
		},
		{
			"name":"Cube.067",
			"primitives":[
				{
					"attributes":{
						"POSITION":158,
						"NORMAL":159,
						"TEXCOORD_0":160
					},
					"indices":67,
					"material":0
				}
			]
		},
		{
			"name":"Cube.068",
			"primitives":[
				{
					"attributes":{
						"POSITION":161,
						"NORMAL":162,
						"TEXCOORD_0":163
					},
					"indices":67,
					"material":0
				}
			]
		},
		{
			"name":"Cube.069",
			"primitives":[
				{
					"attributes":{
						"POSITION":164,
						"NORMAL":165,
						"TEXCOORD_0":166
					},
					"indices":67,
					"material":0
				}
			]
		},
		{
			"name":"Cube.070",
			"primitives":[
				{
					"attributes":{
						"POSITION":167,
						"NORMAL":168,
						"TEXCOORD_0":169
					},
					"indices":67,
					"material":0
				}
			]
		},
		{
			"name":"Cube.071",
			"primitives":[
				{
					"attributes":{
						"POSITION":170,
						"NORMAL":171,
						"TEXCOORD_0":172
					},
					"indices":67,
					"material":0
				}
			]
		},
		{
			"name":"Cube.072",
			"primitives":[
				{
					"attributes":{
						"POSITION":173,
						"NORMAL":174,
						"TEXCOORD_0":175
					},
					"indices":67,
					"material":0
				}
			]
		},
		{
			"name":"Cube.073",
			"primitives":[
				{
					"attributes":{
						"POSITION":176,
						"NORMAL":177,
						"TEXCOORD_0":178
					},
					"indices":67,
					"material":0
				}
			]
		},
		{
			"name":"Cube.074",
			"primitives":[
				{
					"attributes":{
						"POSITION":179,
						"NORMAL":180,
						"TEXCOORD_0":181
					},
					"indices":67,
					"material":0
				}
			]
		},
		{
			"name":"Cube.075",
			"primitives":[
				{
					"attributes":{
						"POSITION":182,
						"NORMAL":183,
						"TEXCOORD_0":184
					},
					"indices":67,
					"material":0
				}
			]
		},
		{
			"name":"Cube.076",
			"primitives":[
				{
					"attributes":{
						"POSITION":185,
						"NORMAL":186,
						"TEXCOORD_0":187
					},
					"indices":67,
					"material":0
				}
			]
		},
		{
			"name":"Cube.077",
			"primitives":[
				{
					"attributes":{
						"POSITION":188,
						"NORMAL":189,
						"TEXCOORD_0":190
					},
					"indices":67,
					"material":0
				}
			]
		},
		{
			"name":"Cube.078",
			"primitives":[
				{
					"attributes":{
						"POSITION":191,
						"NORMAL":192,
						"TEXCOORD_0":193
					},
					"indices":67,
					"material":0
				}
			]
		},
		{
			"name":"Cube.079",
			"primitives":[
				{
					"attributes":{
						"POSITION":194,
						"NORMAL":195,
						"TEXCOORD_0":196
					},
					"indices":67,
					"material":0
				}
			]
		},
		{
			"name":"Cube.080",
			"primitives":[
				{
					"attributes":{
						"POSITION":197,
						"NORMAL":198,
						"TEXCOORD_0":199
					},
					"indices":67,
					"material":0
				}
			]
		},
		{
			"name":"Cube.081",
			"primitives":[
				{
					"attributes":{
						"POSITION":200,
						"NORMAL":201,
						"TEXCOORD_0":202
					},
					"indices":67,
					"material":0
				}
			]
		},
		{
			"name":"Cube.082",
			"primitives":[
				{
					"attributes":{
						"POSITION":203,
						"NORMAL":204,
						"TEXCOORD_0":205
					},
					"indices":67,
					"material":0
				}
			]
		},
		{
			"name":"Cube.083",
			"primitives":[
				{
					"attributes":{
						"POSITION":206,
						"NORMAL":207,
						"TEXCOORD_0":208
					},
					"indices":67,
					"material":0
				}
			]
		},
		{
			"name":"Cube.084",
			"primitives":[
				{
					"attributes":{
						"POSITION":209,
						"NORMAL":210,
						"TEXCOORD_0":211
					},
					"indices":67,
					"material":0
				}
			]
		},
		{
			"name":"Cube.085",
			"primitives":[
				{
					"attributes":{
						"POSITION":212,
						"NORMAL":213,
						"TEXCOORD_0":214
					},
					"indices":67,
					"material":0
				}
			]
		},
		{
			"name":"Cube.086",
			"primitives":[
				{
					"attributes":{
						"POSITION":215,
						"NORMAL":216,
						"TEXCOORD_0":217
					},
					"indices":67,
					"material":0
				}
			]
		},
		{
			"name":"Cube.087",
			"primitives":[
				{
					"attributes":{
						"POSITION":218,
						"NORMAL":219,
						"TEXCOORD_0":220
					},
					"indices":67,
					"material":0
				}
			]
		},
		{
			"name":"Cube.088",
			"primitives":[
				{
					"attributes":{
						"POSITION":221,
						"NORMAL":222,
						"TEXCOORD_0":223
					},
					"indices":67,
					"material":0
				}
			]
		},
		{
			"name":"Cube.089",
			"primitives":[
				{
					"attributes":{
						"POSITION":224,
						"NORMAL":225,
						"TEXCOORD_0":226
					},
					"indices":67,
					"material":0
				}
			]
		},
		{
			"name":"Cube.090",
			"primitives":[
				{
					"attributes":{
						"POSITION":227,
						"NORMAL":228,
						"TEXCOORD_0":229
					},
					"indices":67,
					"material":0
				}
			]
		},
		{
			"name":"Cube.091",
			"primitives":[
				{
					"attributes":{
						"POSITION":230,
						"NORMAL":231,
						"TEXCOORD_0":232
					},
					"indices":67,
					"material":0
				}
			]
		},
		{
			"name":"Cube.092",
			"primitives":[
				{
					"attributes":{
						"POSITION":233,
						"NORMAL":234,
						"TEXCOORD_0":235
					},
					"indices":67,
					"material":0
				}
			]
		},
		{
			"name":"Cube.093",
			"primitives":[
				{
					"attributes":{
						"POSITION":236,
						"NORMAL":237,
						"TEXCOORD_0":238
					},
					"indices":67,
					"material":0
				}
			]
		},
		{
			"name":"Cube.094",
			"primitives":[
				{
					"attributes":{
						"POSITION":239,
						"NORMAL":240,
						"TEXCOORD_0":241
					},
					"indices":67,
					"material":0
				}
			]
		},
		{
			"name":"Cube.095",
			"primitives":[
				{
					"attributes":{
						"POSITION":242,
						"NORMAL":243,
						"TEXCOORD_0":244
					},
					"indices":67,
					"material":0
				}
			]
		},
		{
			"name":"Cube.096",
			"primitives":[
				{
					"attributes":{
						"POSITION":245,
						"NORMAL":246,
						"TEXCOORD_0":247
					},
					"indices":67,
					"material":0
				}
			]
		},
		{
			"name":"Cube.097",
			"primitives":[
				{
					"attributes":{
						"POSITION":248,
						"NORMAL":249,
						"TEXCOORD_0":250
					},
					"indices":67,
					"material":0
				}
			]
		},
		{
			"name":"Cube.098",
			"primitives":[
				{
					"attributes":{
						"POSITION":251,
						"NORMAL":252,
						"TEXCOORD_0":253
					},
					"indices":67,
					"material":0
				}
			]
		},
		{
			"name":"Cube.099",
			"primitives":[
				{
					"attributes":{
						"POSITION":254,
						"NORMAL":255,
						"TEXCOORD_0":256
					},
					"indices":67,
					"material":0
				}
			]
		},
		{
			"name":"Cube.100",
			"primitives":[
				{
					"attributes":{
						"POSITION":257,
						"NORMAL":258,
						"TEXCOORD_0":259
					},
					"indices":67,
					"material":0
				}
			]
		},
		{
			"name":"Cube.101",
			"primitives":[
				{
					"attributes":{
						"POSITION":260,
						"NORMAL":261,
						"TEXCOORD_0":262
					},
					"indices":67,
					"material":0
				}
			]
		},
		{
			"name":"Cube.102",
			"primitives":[
				{
					"attributes":{
						"POSITION":263,
						"NORMAL":264,
						"TEXCOORD_0":265
					},
					"indices":67,
					"material":0
				}
			]
		},
		{
			"name":"Cube.103",
			"primitives":[
				{
					"attributes":{
						"POSITION":266,
						"NORMAL":267,
						"TEXCOORD_0":268
					},
					"indices":67,
					"material":0
				}
			]
		},
		{
			"name":"Cube.104",
			"primitives":[
				{
					"attributes":{
						"POSITION":269,
						"NORMAL":270,
						"TEXCOORD_0":271
					},
					"indices":67,
					"material":0
				}
			]
		},
		{
			"name":"Cube.105",
			"primitives":[
				{
					"attributes":{
						"POSITION":272,
						"NORMAL":273,
						"TEXCOORD_0":274
					},
					"indices":67,
					"material":0
				}
			]
		},
		{
			"name":"Cube.106",
			"primitives":[
				{
					"attributes":{
						"POSITION":275,
						"NORMAL":276,
						"TEXCOORD_0":277
					},
					"indices":67,
					"material":0
				}
			]
		},
		{
			"name":"Cube.107",
			"primitives":[
				{
					"attributes":{
						"POSITION":278,
						"NORMAL":279,
						"TEXCOORD_0":280
					},
					"indices":67,
					"material":0
				}
			]
		},
		{
			"name":"Cube.108",
			"primitives":[
				{
					"attributes":{
						"POSITION":281,
						"NORMAL":282,
						"TEXCOORD_0":283
					},
					"indices":67,
					"material":0
				}
			]
		},
		{
			"name":"Cube.109",
			"primitives":[
				{
					"attributes":{
						"POSITION":284,
						"NORMAL":285,
						"TEXCOORD_0":286
					},
					"indices":67,
					"material":0
				}
			]
		},
		{
			"name":"Cube.110",
			"primitives":[
				{
					"attributes":{
						"POSITION":287,
						"NORMAL":288,
						"TEXCOORD_0":289
					},
					"indices":67,
					"material":0
				}
			]
		},
		{
			"name":"Cube.111",
			"primitives":[
				{
					"attributes":{
						"POSITION":290,
						"NORMAL":291,
						"TEXCOORD_0":292
					},
					"indices":67,
					"material":0
				}
			]
		},
		{
			"name":"Cube.112",
			"primitives":[
				{
					"attributes":{
						"POSITION":293,
						"NORMAL":294,
						"TEXCOORD_0":295
					},
					"indices":296,
					"material":0
				}
			]
		},
		{
			"name":"Cube.113",
			"primitives":[
				{
					"attributes":{
						"POSITION":297,
						"NORMAL":298,
						"TEXCOORD_0":299
					},
					"indices":300,
					"material":0
				}
			]
		},
		{
			"name":"Cube.114",
			"primitives":[
				{
					"attributes":{
						"POSITION":301,
						"NORMAL":302,
						"TEXCOORD_0":303
					},
					"indices":13,
					"material":0
				}
			]
		},
		{
			"name":"Cube.115",
			"primitives":[
				{
					"attributes":{
						"POSITION":304,
						"NORMAL":305,
						"TEXCOORD_0":306
					},
					"indices":307,
					"material":0
				}
			]
		},
		{
			"name":"Cube.116",
			"primitives":[
				{
					"attributes":{
						"POSITION":308,
						"NORMAL":309,
						"TEXCOORD_0":310
					},
					"indices":307,
					"material":0
				}
			]
		},
		{
			"name":"Cube.117",
			"primitives":[
				{
					"attributes":{
						"POSITION":311,
						"NORMAL":312,
						"TEXCOORD_0":313
					},
					"indices":307,
					"material":0
				}
			]
		},
		{
			"name":"Cube.118",
			"primitives":[
				{
					"attributes":{
						"POSITION":314,
						"NORMAL":315,
						"TEXCOORD_0":316
					},
					"indices":13,
					"material":0
				}
			]
		},
		{
			"name":"Cube.119",
			"primitives":[
				{
					"attributes":{
						"POSITION":317,
						"NORMAL":318,
						"TEXCOORD_0":319
					},
					"indices":13,
					"material":0
				}
			]
		},
		{
			"name":"Cube.120",
			"primitives":[
				{
					"attributes":{
						"POSITION":320,
						"NORMAL":321,
						"TEXCOORD_0":322
					},
					"indices":13,
					"material":0
				}
			]
		},
		{
			"name":"Cube.121",
			"primitives":[
				{
					"attributes":{
						"POSITION":323,
						"NORMAL":324,
						"TEXCOORD_0":325
					},
					"indices":13,
					"material":0
				}
			]
		}
	],
	"accessors":[
		{
			"bufferView":0,
			"componentType":5126,
			"count":24,
			"max":[
				10,
				0.5,
				20
			],
			"min":[
				-10,
				-0.5,
				-20
			],
			"type":"VEC3"
		},
		{
			"bufferView":1,
			"componentType":5126,
			"count":24,
			"type":"VEC3"
		},
		{
			"bufferView":2,
			"componentType":5126,
			"count":24,
			"type":"VEC2"
		},
		{
			"bufferView":3,
			"componentType":5123,
			"count":36,
			"type":"SCALAR"
		},
		{
			"bufferView":4,
			"componentType":5126,
			"count":24,
			"max":[
				1,
				0.5,
				1
			],
			"min":[
				-1,
				-0.5,
				-1
			],
			"type":"VEC3"
		},
		{
			"bufferView":5,
			"componentType":5126,
			"count":24,
			"type":"VEC3"
		},
		{
			"bufferView":6,
			"componentType":5126,
			"count":24,
			"type":"VEC2"
		},
		{
			"bufferView":7,
			"componentType":5126,
			"count":24,
			"max":[
				1,
				0.5,
				1
			],
			"min":[
				-1,
				-0.5,
				-1
			],
			"type":"VEC3"
		},
		{
			"bufferView":8,
			"componentType":5126,
			"count":24,
			"type":"VEC3"
		},
		{
			"bufferView":9,
			"componentType":5126,
			"count":24,
			"type":"VEC2"
		},
		{
			"bufferView":10,
			"componentType":5126,
			"count":24,
			"max":[
				1,
				0.5,
				1
			],
			"min":[
				-1,
				-0.5,
				-1
			],
			"type":"VEC3"
		},
		{
			"bufferView":11,
			"componentType":5126,
			"count":24,
			"type":"VEC3"
		},
		{
			"bufferView":12,
			"componentType":5126,
			"count":24,
			"type":"VEC2"
		},
		{
			"bufferView":13,
			"componentType":5123,
			"count":36,
			"type":"SCALAR"
		},
		{
			"bufferView":14,
			"componentType":5126,
			"count":24,
			"max":[
				5,
				0.5,
				2
			],
			"min":[
				-5,
				-0.5,
				-2
			],
			"type":"VEC3"
		},
		{
			"bufferView":15,
			"componentType":5126,
			"count":24,
			"type":"VEC3"
		},
		{
			"bufferView":16,
			"componentType":5126,
			"count":24,
			"type":"VEC2"
		},
		{
			"bufferView":17,
			"componentType":5123,
			"count":36,
			"type":"SCALAR"
		},
		{
			"bufferView":18,
			"componentType":5126,
			"count":24,
			"max":[
				5,
				0.5,
				2
			],
			"min":[
				-5,
				-0.5,
				-2
			],
			"type":"VEC3"
		},
		{
			"bufferView":19,
			"componentType":5126,
			"count":24,
			"type":"VEC3"
		},
		{
			"bufferView":20,
			"componentType":5126,
			"count":24,
			"type":"VEC2"
		},
		{
			"bufferView":21,
			"componentType":5126,
			"count":24,
			"max":[
				5,
				0.5,
				2
			],
			"min":[
				-5,
				-0.5,
				-2
			],
			"type":"VEC3"
		},
		{
			"bufferView":22,
			"componentType":5126,
			"count":24,
			"type":"VEC3"
		},
		{
			"bufferView":23,
			"componentType":5126,
			"count":24,
			"type":"VEC2"
		},
		{
			"bufferView":24,
			"componentType":5126,
			"count":24,
			"max":[
				5,
				0.5,
				2
			],
			"min":[
				-5,
				-0.5,
				-2
			],
			"type":"VEC3"
		},
		{
			"bufferView":25,
			"componentType":5126,
			"count":24,
			"type":"VEC3"
		},
		{
			"bufferView":26,
			"componentType":5126,
			"count":24,
			"type":"VEC2"
		},
		{
			"bufferView":27,
			"componentType":5126,
			"count":24,
			"max":[
				5,
				0.5,
				2
			],
			"min":[
				-5,
				-0.5,
				-2
			],
			"type":"VEC3"
		},
		{
			"bufferView":28,
			"componentType":5126,
			"count":24,
			"type":"VEC3"
		},
		{
			"bufferView":29,
			"componentType":5126,
			"count":24,
			"type":"VEC2"
		},
		{
			"bufferView":30,
			"componentType":5126,
			"count":24,
			"max":[
				5,
				0.5,
				2
			],
			"min":[
				-5,
				-0.5,
				-2
			],
			"type":"VEC3"
		},
		{
			"bufferView":31,
			"componentType":5126,
			"count":24,
			"type":"VEC3"
		},
		{
			"bufferView":32,
			"componentType":5126,
			"count":24,
			"type":"VEC2"
		},
		{
			"bufferView":33,
			"componentType":5126,
			"count":24,
			"max":[
				5,
				0.5,
				2
			],
			"min":[
				-5,
				-0.5,
				-2
			],
			"type":"VEC3"
		},
		{
			"bufferView":34,
			"componentType":5126,
			"count":24,
			"type":"VEC3"
		},
		{
			"bufferView":35,
			"componentType":5126,
			"count":24,
			"type":"VEC2"
		},
		{
			"bufferView":36,
			"componentType":5126,
			"count":24,
			"max":[
				5,
				0.5,
				2
			],
			"min":[
				-5,
				-0.5,
				-2
			],
			"type":"VEC3"
		},
		{
			"bufferView":37,
			"componentType":5126,
			"count":24,
			"type":"VEC3"
		},
		{
			"bufferView":38,
			"componentType":5126,
			"count":24,
			"type":"VEC2"
		},
		{
			"bufferView":39,
			"componentType":5126,
			"count":24,
			"max":[
				5,
				0.5,
				2
			],
			"min":[
				-5,
				-0.5,
				-2
			],
			"type":"VEC3"
		},
		{
			"bufferView":40,
			"componentType":5126,
			"count":24,
			"type":"VEC3"
		},
		{
			"bufferView":41,
			"componentType":5126,
			"count":24,
			"type":"VEC2"
		},
		{
			"bufferView":42,
			"componentType":5126,
			"count":24,
			"max":[
				5,
				0.5,
				2
			],
			"min":[
				-5,
				-0.5,
				-2
			],
			"type":"VEC3"
		},
		{
			"bufferView":43,
			"componentType":5126,
			"count":24,
			"type":"VEC3"
		},
		{
			"bufferView":44,
			"componentType":5126,
			"count":24,
			"type":"VEC2"
		},
		{
			"bufferView":45,
			"componentType":5126,
			"count":24,
			"max":[
				0.5,
				0.5,
				2
			],
			"min":[
				-0.5,
				-0.5,
				-2
			],
			"type":"VEC3"
		},
		{
			"bufferView":46,
			"componentType":5126,
			"count":24,
			"type":"VEC3"
		},
		{
			"bufferView":47,
			"componentType":5126,
			"count":24,
			"type":"VEC2"
		},
		{
			"bufferView":48,
			"componentType":5123,
			"count":36,
			"type":"SCALAR"
		},
		{
			"bufferView":49,
			"componentType":5126,
			"count":24,
			"max":[
				0.25,
				0.5,
				2
			],
			"min":[
				-0.25,
				-0.5,
				-2
			],
			"type":"VEC3"
		},
		{
			"bufferView":50,
			"componentType":5126,
			"count":24,
			"type":"VEC3"
		},
		{
			"bufferView":51,
			"componentType":5126,
			"count":24,
			"type":"VEC2"
		},
		{
			"bufferView":52,
			"componentType":5126,
			"count":24,
			"max":[
				0.5,
				0.5,
				2
			],
			"min":[
				-0.5,
				-0.5,
				-2
			],
			"type":"VEC3"
		},
		{
			"bufferView":53,
			"componentType":5126,
			"count":24,
			"type":"VEC3"
		},
		{
			"bufferView":54,
			"componentType":5126,
			"count":24,
			"type":"VEC2"
		},
		{
			"bufferView":55,
			"componentType":5126,
			"count":24,
			"max":[
				0.25,
				0.5,
				2
			],
			"min":[
				-0.25,
				-0.5,
				-2
			],
			"type":"VEC3"
		},
		{
			"bufferView":56,
			"componentType":5126,
			"count":24,
			"type":"VEC3"
		},
		{
			"bufferView":57,
			"componentType":5126,
			"count":24,
			"type":"VEC2"
		},
		{
			"bufferView":58,
			"componentType":5126,
			"count":24,
			"max":[
				0.5,
				0.5,
				2
			],
			"min":[
				-0.5,
				-0.5,
				-2
			],
			"type":"VEC3"
		},
		{
			"bufferView":59,
			"componentType":5126,
			"count":24,
			"type":"VEC3"
		},
		{
			"bufferView":60,
			"componentType":5126,
			"count":24,
			"type":"VEC2"
		},
		{
			"bufferView":61,
			"componentType":5126,
			"count":24,
			"max":[
				0.25,
				0.5,
				2
			],
			"min":[
				-0.25,
				-0.5,
				-2
			],
			"type":"VEC3"
		},
		{
			"bufferView":62,
			"componentType":5126,
			"count":24,
			"type":"VEC3"
		},
		{
			"bufferView":63,
			"componentType":5126,
			"count":24,
			"type":"VEC2"
		},
		{
			"bufferView":64,
			"componentType":5126,
			"count":24,
			"max":[
				0.5,
				0.5,
				2
			],
			"min":[
				-0.5,
				-0.5,
				-2
			],
			"type":"VEC3"
		},
		{
			"bufferView":65,
			"componentType":5126,
			"count":24,
			"type":"VEC3"
		},
		{
			"bufferView":66,
			"componentType":5126,
			"count":24,
			"type":"VEC2"
		},
		{
			"bufferView":67,
			"componentType":5123,
			"count":36,
			"type":"SCALAR"
		},
		{
			"bufferView":68,
			"componentType":5126,
			"count":24,
			"max":[
				0.5,
				0.5,
				2
			],
			"min":[
				-0.5,
				-0.5,
				-2
			],
			"type":"VEC3"
		},
		{
			"bufferView":69,
			"componentType":5126,
			"count":24,
			"type":"VEC3"
		},
		{
			"bufferView":70,
			"componentType":5126,
			"count":24,
			"type":"VEC2"
		},
		{
			"bufferView":71,
			"componentType":5126,
			"count":24,
			"max":[
				0.5,
				0.5,
				2
			],
			"min":[
				-0.5,
				-0.5,
				-2
			],
			"type":"VEC3"
		},
		{
			"bufferView":72,
			"componentType":5126,
			"count":24,
			"type":"VEC3"
		},
		{
			"bufferView":73,
			"componentType":5126,
			"count":24,
			"type":"VEC2"
		},
		{
			"bufferView":74,
			"componentType":5126,
			"count":24,
			"max":[
				0.5,
				0.5,
				2
			],
			"min":[
				-0.5,
				-0.5,
				-2
			],
			"type":"VEC3"
		},
		{
			"bufferView":75,
			"componentType":5126,
			"count":24,
			"type":"VEC3"
		},
		{
			"bufferView":76,
			"componentType":5126,
			"count":24,
			"type":"VEC2"
		},
		{
			"bufferView":77,
			"componentType":5126,
			"count":24,
			"max":[
				0.5,
				0.5,
				2
			],
			"min":[
				-0.5,
				-0.5,
				-2
			],
			"type":"VEC3"
		},
		{
			"bufferView":78,
			"componentType":5126,
			"count":24,
			"type":"VEC3"
		},
		{
			"bufferView":79,
			"componentType":5126,
			"count":24,
			"type":"VEC2"
		},
		{
			"bufferView":80,
			"componentType":5126,
			"count":24,
			"max":[
				0.5,
				0.5,
				2
			],
			"min":[
				-0.5,
				-0.5,
				-2
			],
			"type":"VEC3"
		},
		{
			"bufferView":81,
			"componentType":5126,
			"count":24,
			"type":"VEC3"
		},
		{
			"bufferView":82,
			"componentType":5126,
			"count":24,
			"type":"VEC2"
		},
		{
			"bufferView":83,
			"componentType":5126,
			"count":24,
			"max":[
				0.5,
				0.5,
				2
			],
			"min":[
				-0.5,
				-0.5,
				-2
			],
			"type":"VEC3"
		},
		{
			"bufferView":84,
			"componentType":5126,
			"count":24,
			"type":"VEC3"
		},
		{
			"bufferView":85,
			"componentType":5126,
			"count":24,
			"type":"VEC2"
		},
		{
			"bufferView":86,
			"componentType":5126,
			"count":24,
			"max":[
				0.5,
				0.5,
				2
			],
			"min":[
				-0.5,
				-0.5,
				-2
			],
			"type":"VEC3"
		},
		{
			"bufferView":87,
			"componentType":5126,
			"count":24,
			"type":"VEC3"
		},
		{
			"bufferView":88,
			"componentType":5126,
			"count":24,
			"type":"VEC2"
		},
		{
			"bufferView":89,
			"componentType":5126,
			"count":24,
			"max":[
				0.5,
				0.5,
				2
			],
			"min":[
				-0.5,
				-0.5,
				-2
			],
			"type":"VEC3"
		},
		{
			"bufferView":90,
			"componentType":5126,
			"count":24,
			"type":"VEC3"
		},
		{
			"bufferView":91,
			"componentType":5126,
			"count":24,
			"type":"VEC2"
		},
		{
			"bufferView":92,
			"componentType":5126,
			"count":24,
			"max":[
				0.25,
				0.5,
				2
			],
			"min":[
				-0.25,
				-0.5,
				-2
			],
			"type":"VEC3"
		},
		{
			"bufferView":93,
			"componentType":5126,
			"count":24,
			"type":"VEC3"
		},
		{
			"bufferView":94,
			"componentType":5126,
			"count":24,
			"type":"VEC2"
		},
		{
			"bufferView":95,
			"componentType":5126,
			"count":24,
			"max":[
				0.25,
				0.5,
				2
			],
			"min":[
				-0.25,
				-0.5,
				-2
			],
			"type":"VEC3"
		},
		{
			"bufferView":96,
			"componentType":5126,
			"count":24,
			"type":"VEC3"
		},
		{
			"bufferView":97,
			"componentType":5126,
			"count":24,
			"type":"VEC2"
		},
		{
			"bufferView":98,
			"componentType":5126,
			"count":24,
			"max":[
				0.25,
				0.5,
				2
			],
			"min":[
				-0.25,
				-0.5,
				-2
			],
			"type":"VEC3"
		},
		{
			"bufferView":99,
			"componentType":5126,
			"count":24,
			"type":"VEC3"
		},
		{
			"bufferView":100,
			"componentType":5126,
			"count":24,
			"type":"VEC2"
		},
		{
			"bufferView":101,
			"componentType":5126,
			"count":24,
			"max":[
				0.25,
				0.5,
				2
			],
			"min":[
				-0.25,
				-0.5,
				-2
			],
			"type":"VEC3"
		},
		{
			"bufferView":102,
			"componentType":5126,
			"count":24,
			"type":"VEC3"
		},
		{
			"bufferView":103,
			"componentType":5126,
			"count":24,
			"type":"VEC2"
		},
		{
			"bufferView":104,
			"componentType":5126,
			"count":24,
			"max":[
				0.25,
				0.5,
				2
			],
			"min":[
				-0.25,
				-0.5,
				-2
			],
			"type":"VEC3"
		},
		{
			"bufferView":105,
			"componentType":5126,
			"count":24,
			"type":"VEC3"
		},
		{
			"bufferView":106,
			"componentType":5126,
			"count":24,
			"type":"VEC2"
		},
		{
			"bufferView":107,
			"componentType":5126,
			"count":24,
			"max":[
				0.25,
				0.5,
				2
			],
			"min":[
				-0.25,
				-0.5,
				-2
			],
			"type":"VEC3"
		},
		{
			"bufferView":108,
			"componentType":5126,
			"count":24,
			"type":"VEC3"
		},
		{
			"bufferView":109,
			"componentType":5126,
			"count":24,
			"type":"VEC2"
		},
		{
			"bufferView":110,
			"componentType":5126,
			"count":24,
			"max":[
				0.25,
				0.5,
				2
			],
			"min":[
				-0.25,
				-0.5,
				-2
			],
			"type":"VEC3"
		},
		{
			"bufferView":111,
			"componentType":5126,
			"count":24,
			"type":"VEC3"
		},
		{
			"bufferView":112,
			"componentType":5126,
			"count":24,
			"type":"VEC2"
		},
		{
			"bufferView":113,
			"componentType":5126,
			"count":24,
			"max":[
				0.25,
				0.5,
				2
			],
			"min":[
				-0.25,
				-0.5,
				-2
			],
			"type":"VEC3"
		},
		{
			"bufferView":114,
			"componentType":5126,
			"count":24,
			"type":"VEC3"
		},
		{
			"bufferView":115,
			"componentType":5126,
			"count":24,
			"type":"VEC2"
		},
		{
			"bufferView":116,
			"componentType":5126,
			"count":24,
			"max":[
				0.25,
				0.5,
				2
			],
			"min":[
				-0.25,
				-0.5,
				-2
			],
			"type":"VEC3"
		},
		{
			"bufferView":117,
			"componentType":5126,
			"count":24,
			"type":"VEC3"
		},
		{
			"bufferView":118,
			"componentType":5126,
			"count":24,
			"type":"VEC2"
		},
		{
			"bufferView":119,
			"componentType":5126,
			"count":24,
			"max":[
				0.25,
				0.5,
				2
			],
			"min":[
				-0.25,
				-0.5,
				-2
			],
			"type":"VEC3"
		},
		{
			"bufferView":120,
			"componentType":5126,
			"count":24,
			"type":"VEC3"
		},
		{
			"bufferView":121,
			"componentType":5126,
			"count":24,
			"type":"VEC2"
		},
		{
			"bufferView":122,
			"componentType":5126,
			"count":24,
			"max":[
				0.25,
				0.5,
				2
			],
			"min":[
				-0.25,
				-0.5,
				-2
			],
			"type":"VEC3"
		},
		{
			"bufferView":123,
			"componentType":5126,
			"count":24,
			"type":"VEC3"
		},
		{
			"bufferView":124,
			"componentType":5126,
			"count":24,
			"type":"VEC2"
		},
		{
			"bufferView":125,
			"componentType":5126,
			"count":24,
			"max":[
				0.25,
				0.5,
				2
			],
			"min":[
				-0.25,
				-0.5,
				-2
			],
			"type":"VEC3"
		},
		{
			"bufferView":126,
			"componentType":5126,
			"count":24,
			"type":"VEC3"
		},
		{
			"bufferView":127,
			"componentType":5126,
			"count":24,
			"type":"VEC2"
		},
		{
			"bufferView":128,
			"componentType":5126,
			"count":24,
			"max":[
				0.25,
				0.5,
				2
			],
			"min":[
				-0.25,
				-0.5,
				-2
			],
			"type":"VEC3"
		},
		{
			"bufferView":129,
			"componentType":5126,
			"count":24,
			"type":"VEC3"
		},
		{
			"bufferView":130,
			"componentType":5126,
			"count":24,
			"type":"VEC2"
		},
		{
			"bufferView":131,
			"componentType":5126,
			"count":24,
			"max":[
				0.25,
				0.5,
				2
			],
			"min":[
				-0.25,
				-0.5,
				-2
			],
			"type":"VEC3"
		},
		{
			"bufferView":132,
			"componentType":5126,
			"count":24,
			"type":"VEC3"
		},
		{
			"bufferView":133,
			"componentType":5126,
			"count":24,
			"type":"VEC2"
		},
		{
			"bufferView":134,
			"componentType":5126,
			"count":24,
			"max":[
				0.25,
				0.5,
				2
			],
			"min":[
				-0.25,
				-0.5,
				-2
			],
			"type":"VEC3"
		},
		{
			"bufferView":135,
			"componentType":5126,
			"count":24,
			"type":"VEC3"
		},
		{
			"bufferView":136,
			"componentType":5126,
			"count":24,
			"type":"VEC2"
		},
		{
			"bufferView":137,
			"componentType":5126,
			"count":24,
			"max":[
				0.25,
				0.5,
				2
			],
			"min":[
				-0.25,
				-0.5,
				-2
			],
			"type":"VEC3"
		},
		{
			"bufferView":138,
			"componentType":5126,
			"count":24,
			"type":"VEC3"
		},
		{
			"bufferView":139,
			"componentType":5126,
			"count":24,
			"type":"VEC2"
		},
		{
			"bufferView":140,
			"componentType":5126,
			"count":24,
			"max":[
				0.25,
				0.5,
				2
			],
			"min":[
				-0.25,
				-0.5,
				-2
			],
			"type":"VEC3"
		},
		{
			"bufferView":141,
			"componentType":5126,
			"count":24,
			"type":"VEC3"
		},
		{
			"bufferView":142,
			"componentType":5126,
			"count":24,
			"type":"VEC2"
		},
		{
			"bufferView":143,
			"componentType":5126,
			"count":24,
			"max":[
				0.25,
				0.5,
				2
			],
			"min":[
				-0.25,
				-0.5,
				-2
			],
			"type":"VEC3"
		},
		{
			"bufferView":144,
			"componentType":5126,
			"count":24,
			"type":"VEC3"
		},
		{
			"bufferView":145,
			"componentType":5126,
			"count":24,
			"type":"VEC2"
		},
		{
			"bufferView":146,
			"componentType":5126,
			"count":24,
			"max":[
				0.5,
				0.5,
				2
			],
			"min":[
				-0.5,
				-0.5,
				-2
			],
			"type":"VEC3"
		},
		{
			"bufferView":147,
			"componentType":5126,
			"count":24,
			"type":"VEC3"
		},
		{
			"bufferView":148,
			"componentType":5126,
			"count":24,
			"type":"VEC2"
		},
		{
			"bufferView":149,
			"componentType":5126,
			"count":24,
			"max":[
				0.5,
				0.5,
				2
			],
			"min":[
				-0.5,
				-0.5,
				-2
			],
			"type":"VEC3"
		},
		{
			"bufferView":150,
			"componentType":5126,
			"count":24,
			"type":"VEC3"
		},
		{
			"bufferView":151,
			"componentType":5126,
			"count":24,
			"type":"VEC2"
		},
		{
			"bufferView":152,
			"componentType":5126,
			"count":24,
			"max":[
				0.5,
				0.5,
				2
			],
			"min":[
				-0.5,
				-0.5,
				-2
			],
			"type":"VEC3"
		},
		{
			"bufferView":153,
			"componentType":5126,
			"count":24,
			"type":"VEC3"
		},
		{
			"bufferView":154,
			"componentType":5126,
			"count":24,
			"type":"VEC2"
		},
		{
			"bufferView":155,
			"componentType":5126,
			"count":24,
			"max":[
				0.5,
				0.5,
				2
			],
			"min":[
				-0.5,
				-0.5,
				-2
			],
			"type":"VEC3"
		},
		{
			"bufferView":156,
			"componentType":5126,
			"count":24,
			"type":"VEC3"
		},
		{
			"bufferView":157,
			"componentType":5126,
			"count":24,
			"type":"VEC2"
		},
		{
			"bufferView":158,
			"componentType":5126,
			"count":24,
			"max":[
				0.5,
				0.5,
				2
			],
			"min":[
				-0.5,
				-0.5,
				-2
			],
			"type":"VEC3"
		},
		{
			"bufferView":159,
			"componentType":5126,
			"count":24,
			"type":"VEC3"
		},
		{
			"bufferView":160,
			"componentType":5126,
			"count":24,
			"type":"VEC2"
		},
		{
			"bufferView":161,
			"componentType":5126,
			"count":24,
			"max":[
				0.5,
				0.5,
				2
			],
			"min":[
				-0.5,
				-0.5,
				-2
			],
			"type":"VEC3"
		},
		{
			"bufferView":162,
			"componentType":5126,
			"count":24,
			"type":"VEC3"
		},
		{
			"bufferView":163,
			"componentType":5126,
			"count":24,
			"type":"VEC2"
		},
		{
			"bufferView":164,
			"componentType":5126,
			"count":24,
			"max":[
				0.5,
				0.5,
				2
			],
			"min":[
				-0.5,
				-0.5,
				-2
			],
			"type":"VEC3"
		},
		{
			"bufferView":165,
			"componentType":5126,
			"count":24,
			"type":"VEC3"
		},
		{
			"bufferView":166,
			"componentType":5126,
			"count":24,
			"type":"VEC2"
		},
		{
			"bufferView":167,
			"componentType":5126,
			"count":24,
			"max":[
				0.25,
				0.5,
				2
			],
			"min":[
				-0.25,
				-0.5,
				-2
			],
			"type":"VEC3"
		},
		{
			"bufferView":168,
			"componentType":5126,
			"count":24,
			"type":"VEC3"
		},
		{
			"bufferView":169,
			"componentType":5126,
			"count":24,
			"type":"VEC2"
		},
		{
			"bufferView":170,
			"componentType":5126,
			"count":24,
			"max":[
				0.25,
				0.5,
				2
			],
			"min":[
				-0.25,
				-0.5,
				-2
			],
			"type":"VEC3"
		},
		{
			"bufferView":171,
			"componentType":5126,
			"count":24,
			"type":"VEC3"
		},
		{
			"bufferView":172,
			"componentType":5126,
			"count":24,
			"type":"VEC2"
		},
		{
			"bufferView":173,
			"componentType":5126,
			"count":24,
			"max":[
				0.25,
				0.5,
				2
			],
			"min":[
				-0.25,
				-0.5,
				-2
			],
			"type":"VEC3"
		},
		{
			"bufferView":174,
			"componentType":5126,
			"count":24,
			"type":"VEC3"
		},
		{
			"bufferView":175,
			"componentType":5126,
			"count":24,
			"type":"VEC2"
		},
		{
			"bufferView":176,
			"componentType":5126,
			"count":24,
			"max":[
				0.25,
				0.5,
				2
			],
			"min":[
				-0.25,
				-0.5,
				-2
			],
			"type":"VEC3"
		},
		{
			"bufferView":177,
			"componentType":5126,
			"count":24,
			"type":"VEC3"
		},
		{
			"bufferView":178,
			"componentType":5126,
			"count":24,
			"type":"VEC2"
		},
		{
			"bufferView":179,
			"componentType":5126,
			"count":24,
			"max":[
				0.25,
				0.5,
				2
			],
			"min":[
				-0.25,
				-0.5,
				-2
			],
			"type":"VEC3"
		},
		{
			"bufferView":180,
			"componentType":5126,
			"count":24,
			"type":"VEC3"
		},
		{
			"bufferView":181,
			"componentType":5126,
			"count":24,
			"type":"VEC2"
		},
		{
			"bufferView":182,
			"componentType":5126,
			"count":24,
			"max":[
				0.25,
				0.5,
				2
			],
			"min":[
				-0.25,
				-0.5,
				-2
			],
			"type":"VEC3"
		},
		{
			"bufferView":183,
			"componentType":5126,
			"count":24,
			"type":"VEC3"
		},
		{
			"bufferView":184,
			"componentType":5126,
			"count":24,
			"type":"VEC2"
		},
		{
			"bufferView":185,
			"componentType":5126,
			"count":24,
			"max":[
				0.25,
				0.5,
				2
			],
			"min":[
				-0.25,
				-0.5,
				-2
			],
			"type":"VEC3"
		},
		{
			"bufferView":186,
			"componentType":5126,
			"count":24,
			"type":"VEC3"
		},
		{
			"bufferView":187,
			"componentType":5126,
			"count":24,
			"type":"VEC2"
		},
		{
			"bufferView":188,
			"componentType":5126,
			"count":24,
			"max":[
				0.25,
				0.5,
				2
			],
			"min":[
				-0.25,
				-0.5,
				-2
			],
			"type":"VEC3"
		},
		{
			"bufferView":189,
			"componentType":5126,
			"count":24,
			"type":"VEC3"
		},
		{
			"bufferView":190,
			"componentType":5126,
			"count":24,
			"type":"VEC2"
		},
		{
			"bufferView":191,
			"componentType":5126,
			"count":24,
			"max":[
				0.25,
				0.5,
				2
			],
			"min":[
				-0.25,
				-0.5,
				-2
			],
			"type":"VEC3"
		},
		{
			"bufferView":192,
			"componentType":5126,
			"count":24,
			"type":"VEC3"
		},
		{
			"bufferView":193,
			"componentType":5126,
			"count":24,
			"type":"VEC2"
		},
		{
			"bufferView":194,
			"componentType":5126,
			"count":24,
			"max":[
				0.25,
				0.5,
				2
			],
			"min":[
				-0.25,
				-0.5,
				-2
			],
			"type":"VEC3"
		},
		{
			"bufferView":195,
			"componentType":5126,
			"count":24,
			"type":"VEC3"
		},
		{
			"bufferView":196,
			"componentType":5126,
			"count":24,
			"type":"VEC2"
		},
		{
			"bufferView":197,
			"componentType":5126,
			"count":24,
			"max":[
				0.25,
				0.5,
				2
			],
			"min":[
				-0.25,
				-0.5,
				-2
			],
			"type":"VEC3"
		},
		{
			"bufferView":198,
			"componentType":5126,
			"count":24,
			"type":"VEC3"
		},
		{
			"bufferView":199,
			"componentType":5126,
			"count":24,
			"type":"VEC2"
		},
		{
			"bufferView":200,
			"componentType":5126,
			"count":24,
			"max":[
				0.25,
				0.5,
				2
			],
			"min":[
				-0.25,
				-0.5,
				-2
			],
			"type":"VEC3"
		},
		{
			"bufferView":201,
			"componentType":5126,
			"count":24,
			"type":"VEC3"
		},
		{
			"bufferView":202,
			"componentType":5126,
			"count":24,
			"type":"VEC2"
		},
		{
			"bufferView":203,
			"componentType":5126,
			"count":24,
			"max":[
				0.25,
				0.5,
				2
			],
			"min":[
				-0.25,
				-0.5,
				-2
			],
			"type":"VEC3"
		},
		{
			"bufferView":204,
			"componentType":5126,
			"count":24,
			"type":"VEC3"
		},
		{
			"bufferView":205,
			"componentType":5126,
			"count":24,
			"type":"VEC2"
		},
		{
			"bufferView":206,
			"componentType":5126,
			"count":24,
			"max":[
				0.25,
				0.5,
				2
			],
			"min":[
				-0.25,
				-0.5,
				-2
			],
			"type":"VEC3"
		},
		{
			"bufferView":207,
			"componentType":5126,
			"count":24,
			"type":"VEC3"
		},
		{
			"bufferView":208,
			"componentType":5126,
			"count":24,
			"type":"VEC2"
		},
		{
			"bufferView":209,
			"componentType":5126,
			"count":24,
			"max":[
				0.5,
				0.5,
				2
			],
			"min":[
				-0.5,
				-0.5,
				-2
			],
			"type":"VEC3"
		},
		{
			"bufferView":210,
			"componentType":5126,
			"count":24,
			"type":"VEC3"
		},
		{
			"bufferView":211,
			"componentType":5126,
			"count":24,
			"type":"VEC2"
		},
		{
			"bufferView":212,
			"componentType":5126,
			"count":24,
			"max":[
				0.5,
				0.4999999701976776,
				2
			],
			"min":[
				-0.5,
				-0.5,
				-2
			],
			"type":"VEC3"
		},
		{
			"bufferView":213,
			"componentType":5126,
			"count":24,
			"type":"VEC3"
		},
		{
			"bufferView":214,
			"componentType":5126,
			"count":24,
			"type":"VEC2"
		},
		{
			"bufferView":215,
			"componentType":5126,
			"count":24,
			"max":[
				0.5,
				0.5,
				2
			],
			"min":[
				-0.5,
				-0.5,
				-2
			],
			"type":"VEC3"
		},
		{
			"bufferView":216,
			"componentType":5126,
			"count":24,
			"type":"VEC3"
		},
		{
			"bufferView":217,
			"componentType":5126,
			"count":24,
			"type":"VEC2"
		},
		{
			"bufferView":218,
			"componentType":5126,
			"count":24,
			"max":[
				0.5,
				0.4999999701976776,
				2
			],
			"min":[
				-0.5,
				-0.4999999701976776,
				-2
			],
			"type":"VEC3"
		},
		{
			"bufferView":219,
			"componentType":5126,
			"count":24,
			"type":"VEC3"
		},
		{
			"bufferView":220,
			"componentType":5126,
			"count":24,
			"type":"VEC2"
		},
		{
			"bufferView":221,
			"componentType":5126,
			"count":24,
			"max":[
				0.5,
				0.5,
				2
			],
			"min":[
				-0.5,
				-0.5,
				-2
			],
			"type":"VEC3"
		},
		{
			"bufferView":222,
			"componentType":5126,
			"count":24,
			"type":"VEC3"
		},
		{
			"bufferView":223,
			"componentType":5126,
			"count":24,
			"type":"VEC2"
		},
		{
			"bufferView":224,
			"componentType":5126,
			"count":24,
			"max":[
				0.5,
				0.5,
				2
			],
			"min":[
				-0.5,
				-0.5,
				-2
			],
			"type":"VEC3"
		},
		{
			"bufferView":225,
			"componentType":5126,
			"count":24,
			"type":"VEC3"
		},
		{
			"bufferView":226,
			"componentType":5126,
			"count":24,
			"type":"VEC2"
		},
		{
			"bufferView":227,
			"componentType":5126,
			"count":24,
			"max":[
				0.5,
				0.5,
				2
			],
			"min":[
				-0.5,
				-0.5,
				-2
			],
			"type":"VEC3"
		},
		{
			"bufferView":228,
			"componentType":5126,
			"count":24,
			"type":"VEC3"
		},
		{
			"bufferView":229,
			"componentType":5126,
			"count":24,
			"type":"VEC2"
		},
		{
			"bufferView":230,
			"componentType":5126,
			"count":24,
			"max":[
				0.5,
				0.5,
				2
			],
			"min":[
				-0.5,
				-0.5,
				-2
			],
			"type":"VEC3"
		},
		{
			"bufferView":231,
			"componentType":5126,
			"count":24,
			"type":"VEC3"
		},
		{
			"bufferView":232,
			"componentType":5126,
			"count":24,
			"type":"VEC2"
		},
		{
			"bufferView":233,
			"componentType":5126,
			"count":24,
			"max":[
				0.5,
				0.5,
				2
			],
			"min":[
				-0.5,
				-0.5,
				-2
			],
			"type":"VEC3"
		},
		{
			"bufferView":234,
			"componentType":5126,
			"count":24,
			"type":"VEC3"
		},
		{
			"bufferView":235,
			"componentType":5126,
			"count":24,
			"type":"VEC2"
		},
		{
			"bufferView":236,
			"componentType":5126,
			"count":24,
			"max":[
				0.25,
				0.5,
				2
			],
			"min":[
				-0.25,
				-0.5,
				-2
			],
			"type":"VEC3"
		},
		{
			"bufferView":237,
			"componentType":5126,
			"count":24,
			"type":"VEC3"
		},
		{
			"bufferView":238,
			"componentType":5126,
			"count":24,
			"type":"VEC2"
		},
		{
			"bufferView":239,
			"componentType":5126,
			"count":24,
			"max":[
				0.25,
				0.5,
				2
			],
			"min":[
				-0.25,
				-0.5,
				-2
			],
			"type":"VEC3"
		},
		{
			"bufferView":240,
			"componentType":5126,
			"count":24,
			"type":"VEC3"
		},
		{
			"bufferView":241,
			"componentType":5126,
			"count":24,
			"type":"VEC2"
		},
		{
			"bufferView":242,
			"componentType":5126,
			"count":24,
			"max":[
				0.25,
				0.5,
				2
			],
			"min":[
				-0.25,
				-0.5,
				-2
			],
			"type":"VEC3"
		},
		{
			"bufferView":243,
			"componentType":5126,
			"count":24,
			"type":"VEC3"
		},
		{
			"bufferView":244,
			"componentType":5126,
			"count":24,
			"type":"VEC2"
		},
		{
			"bufferView":245,
			"componentType":5126,
			"count":24,
			"max":[
				0.25,
				0.4999999701976776,
				2
			],
			"min":[
				-0.25,
				-0.5,
				-2
			],
			"type":"VEC3"
		},
		{
			"bufferView":246,
			"componentType":5126,
			"count":24,
			"type":"VEC3"
		},
		{
			"bufferView":247,
			"componentType":5126,
			"count":24,
			"type":"VEC2"
		},
		{
			"bufferView":248,
			"componentType":5126,
			"count":24,
			"max":[
				0.25,
				0.5,
				2
			],
			"min":[
				-0.25,
				-0.5,
				-2
			],
			"type":"VEC3"
		},
		{
			"bufferView":249,
			"componentType":5126,
			"count":24,
			"type":"VEC3"
		},
		{
			"bufferView":250,
			"componentType":5126,
			"count":24,
			"type":"VEC2"
		},
		{
			"bufferView":251,
			"componentType":5126,
			"count":24,
			"max":[
				0.25,
				0.5,
				2
			],
			"min":[
				-0.25,
				-0.5,
				-2
			],
			"type":"VEC3"
		},
		{
			"bufferView":252,
			"componentType":5126,
			"count":24,
			"type":"VEC3"
		},
		{
			"bufferView":253,
			"componentType":5126,
			"count":24,
			"type":"VEC2"
		},
		{
			"bufferView":254,
			"componentType":5126,
			"count":24,
			"max":[
				0.25,
				0.5,
				2
			],
			"min":[
				-0.25,
				-0.5,
				-2
			],
			"type":"VEC3"
		},
		{
			"bufferView":255,
			"componentType":5126,
			"count":24,
			"type":"VEC3"
		},
		{
			"bufferView":256,
			"componentType":5126,
			"count":24,
			"type":"VEC2"
		},
		{
			"bufferView":257,
			"componentType":5126,
			"count":24,
			"max":[
				0.25,
				0.5,
				2
			],
			"min":[
				-0.25,
				-0.5,
				-2
			],
			"type":"VEC3"
		},
		{
			"bufferView":258,
			"componentType":5126,
			"count":24,
			"type":"VEC3"
		},
		{
			"bufferView":259,
			"componentType":5126,
			"count":24,
			"type":"VEC2"
		},
		{
			"bufferView":260,
			"componentType":5126,
			"count":24,
			"max":[
				0.25,
				0.5,
				2
			],
			"min":[
				-0.25,
				-0.5,
				-2
			],
			"type":"VEC3"
		},
		{
			"bufferView":261,
			"componentType":5126,
			"count":24,
			"type":"VEC3"
		},
		{
			"bufferView":262,
			"componentType":5126,
			"count":24,
			"type":"VEC2"
		},
		{
			"bufferView":263,
			"componentType":5126,
			"count":24,
			"max":[
				0.25,
				0.5,
				2
			],
			"min":[
				-0.25,
				-0.5,
				-2
			],
			"type":"VEC3"
		},
		{
			"bufferView":264,
			"componentType":5126,
			"count":24,
			"type":"VEC3"
		},
		{
			"bufferView":265,
			"componentType":5126,
			"count":24,
			"type":"VEC2"
		},
		{
			"bufferView":266,
			"componentType":5126,
			"count":24,
			"max":[
				0.25,
				0.5,
				2
			],
			"min":[
				-0.25,
				-0.5,
				-2
			],
			"type":"VEC3"
		},
		{
			"bufferView":267,
			"componentType":5126,
			"count":24,
			"type":"VEC3"
		},
		{
			"bufferView":268,
			"componentType":5126,
			"count":24,
			"type":"VEC2"
		},
		{
			"bufferView":269,
			"componentType":5126,
			"count":24,
			"max":[
				0.25,
				0.5,
				2
			],
			"min":[
				-0.25,
				-0.5,
				-2
			],
			"type":"VEC3"
		},
		{
			"bufferView":270,
			"componentType":5126,
			"count":24,
			"type":"VEC3"
		},
		{
			"bufferView":271,
			"componentType":5126,
			"count":24,
			"type":"VEC2"
		},
		{
			"bufferView":272,
			"componentType":5126,
			"count":24,
			"max":[
				0.25,
				0.5,
				2
			],
			"min":[
				-0.25,
				-0.5,
				-2
			],
			"type":"VEC3"
		},
		{
			"bufferView":273,
			"componentType":5126,
			"count":24,
			"type":"VEC3"
		},
		{
			"bufferView":274,
			"componentType":5126,
			"count":24,
			"type":"VEC2"
		},
		{
			"bufferView":275,
			"componentType":5126,
			"count":24,
			"max":[
				0.25,
				0.5,
				2
			],
			"min":[
				-0.25,
				-0.5,
				-2
			],
			"type":"VEC3"
		},
		{
			"bufferView":276,
			"componentType":5126,
			"count":24,
			"type":"VEC3"
		},
		{
			"bufferView":277,
			"componentType":5126,
			"count":24,
			"type":"VEC2"
		},
		{
			"bufferView":278,
			"componentType":5126,
			"count":24,
			"max":[
				0.25,
				0.5,
				2
			],
			"min":[
				-0.25,
				-0.5,
				-2
			],
			"type":"VEC3"
		},
		{
			"bufferView":279,
			"componentType":5126,
			"count":24,
			"type":"VEC3"
		},
		{
			"bufferView":280,
			"componentType":5126,
			"count":24,
			"type":"VEC2"
		},
		{
			"bufferView":281,
			"componentType":5126,
			"count":24,
			"max":[
				0.25,
				0.5000000596046448,
				2
			],
			"min":[
				-0.25,
				-0.5000000596046448,
				-2
			],
			"type":"VEC3"
		},
		{
			"bufferView":282,
			"componentType":5126,
			"count":24,
			"type":"VEC3"
		},
		{
			"bufferView":283,
			"componentType":5126,
			"count":24,
			"type":"VEC2"
		},
		{
			"bufferView":284,
			"componentType":5126,
			"count":24,
			"max":[
				0.25,
				0.5,
				2
			],
			"min":[
				-0.25,
				-0.5,
				-2
			],
			"type":"VEC3"
		},
		{
			"bufferView":285,
			"componentType":5126,
			"count":24,
			"type":"VEC3"
		},
		{
			"bufferView":286,
			"componentType":5126,
			"count":24,
			"type":"VEC2"
		},
		{
			"bufferView":287,
			"componentType":5126,
			"count":24,
			"max":[
				0.25,
				0.4999999403953552,
				2
			],
			"min":[
				-0.25,
				-0.4999999403953552,
				-2
			],
			"type":"VEC3"
		},
		{
			"bufferView":288,
			"componentType":5126,
			"count":24,
			"type":"VEC3"
		},
		{
			"bufferView":289,
			"componentType":5126,
			"count":24,
			"type":"VEC2"
		},
		{
			"bufferView":290,
			"componentType":5126,
			"count":24,
			"max":[
				0.25,
				0.5,
				2
			],
			"min":[
				-0.25,
				-0.5,
				-2
			],
			"type":"VEC3"
		},
		{
			"bufferView":291,
			"componentType":5126,
			"count":24,
			"type":"VEC3"
		},
		{
			"bufferView":292,
			"componentType":5126,
			"count":24,
			"type":"VEC2"
		},
		{
			"bufferView":293,
			"componentType":5126,
			"count":24,
			"max":[
				1,
				0.25,
				1
			],
			"min":[
				-1,
				-0.25,
				-1
			],
			"type":"VEC3"
		},
		{
			"bufferView":294,
			"componentType":5126,
			"count":24,
			"type":"VEC3"
		},
		{
			"bufferView":295,
			"componentType":5126,
			"count":24,
			"type":"VEC2"
		},
		{
			"bufferView":296,
			"componentType":5123,
			"count":36,
			"type":"SCALAR"
		},
		{
			"bufferView":297,
			"componentType":5126,
			"count":24,
			"max":[
				10,
				0.5,
				2
			],
			"min":[
				-10,
				-0.5,
				-2
			],
			"type":"VEC3"
		},
		{
			"bufferView":298,
			"componentType":5126,
			"count":24,
			"type":"VEC3"
		},
		{
			"bufferView":299,
			"componentType":5126,
			"count":24,
			"type":"VEC2"
		},
		{
			"bufferView":300,
			"componentType":5123,
			"count":36,
			"type":"SCALAR"
		},
		{
			"bufferView":301,
			"componentType":5126,
			"count":24,
			"max":[
				1,
				0.5,
				1
			],
			"min":[
				-1,
				-0.5,
				-1
			],
			"type":"VEC3"
		},
		{
			"bufferView":302,
			"componentType":5126,
			"count":24,
			"type":"VEC3"
		},
		{
			"bufferView":303,
			"componentType":5126,
			"count":24,
			"type":"VEC2"
		},
		{
			"bufferView":304,
			"componentType":5126,
			"count":24,
			"max":[
				1,
				0.125,
				1
			],
			"min":[
				-1,
				-0.125,
				-1
			],
			"type":"VEC3"
		},
		{
			"bufferView":305,
			"componentType":5126,
			"count":24,
			"type":"VEC3"
		},
		{
			"bufferView":306,
			"componentType":5126,
			"count":24,
			"type":"VEC2"
		},
		{
			"bufferView":307,
			"componentType":5123,
			"count":36,
			"type":"SCALAR"
		},
		{
			"bufferView":308,
			"componentType":5126,
			"count":24,
			"max":[
				1,
				0.06499999761581421,
				1
			],
			"min":[
				-1,
				-0.06499999761581421,
				-1
			],
			"type":"VEC3"
		},
		{
			"bufferView":309,
			"componentType":5126,
			"count":24,
			"type":"VEC3"
		},
		{
			"bufferView":310,
			"componentType":5126,
			"count":24,
			"type":"VEC2"
		},
		{
			"bufferView":311,
			"componentType":5126,
			"count":24,
			"max":[
				1,
				0.03374999761581421,
				1
			],
			"min":[
				-1,
				-0.03374999761581421,
				-1
			],
			"type":"VEC3"
		},
		{
			"bufferView":312,
			"componentType":5126,
			"count":24,
			"type":"VEC3"
		},
		{
			"bufferView":313,
			"componentType":5126,
			"count":24,
			"type":"VEC2"
		},
		{
			"bufferView":314,
			"componentType":5126,
			"count":24,
			"max":[
				1,
				0.25,
				1
			],
			"min":[
				-1,
				-0.25,
				-1
			],
			"type":"VEC3"
		},
		{
			"bufferView":315,
			"componentType":5126,
			"count":24,
			"type":"VEC3"
		},
		{
			"bufferView":316,
			"componentType":5126,
			"count":24,
			"type":"VEC2"
		},
		{
			"bufferView":317,
			"componentType":5126,
			"count":24,
			"max":[
				1,
				0.15000000596046448,
				1
			],
			"min":[
				-1,
				-0.14999999105930328,
				-1
			],
			"type":"VEC3"
		},
		{
			"bufferView":318,
			"componentType":5126,
			"count":24,
			"type":"VEC3"
		},
		{
			"bufferView":319,
			"componentType":5126,
			"count":24,
			"type":"VEC2"
		},
		{
			"bufferView":320,
			"componentType":5126,
			"count":24,
			"max":[
				1,
				0.04999999701976776,
				1
			],
			"min":[
				-1,
				-0.04999999701976776,
				-1
			],
			"type":"VEC3"
		},
		{
			"bufferView":321,
			"componentType":5126,
			"count":24,
			"type":"VEC3"
		},
		{
			"bufferView":322,
			"componentType":5126,
			"count":24,
			"type":"VEC2"
		},
		{
			"bufferView":323,
			"componentType":5126,
			"count":24,
			"max":[
				1,
				0.024999991059303284,
				1
			],
			"min":[
				-1,
				-0.024999991059303284,
				-1
			],
			"type":"VEC3"
		},
		{
			"bufferView":324,
			"componentType":5126,
			"count":24,
			"type":"VEC3"
		},
		{
			"bufferView":325,
			"componentType":5126,
			"count":24,
			"type":"VEC2"
		}
	],
	"bufferViews":[
		{
			"buffer":0,
			"byteLength":288,
			"byteOffset":0,
			"target":34962
		},
		{
			"buffer":0,
			"byteLength":288,
			"byteOffset":288,
			"target":34962
		},
		{
			"buffer":0,
			"byteLength":192,
			"byteOffset":576,
			"target":34962
		},
		{
			"buffer":0,
			"byteLength":72,
			"byteOffset":768,
			"target":34963
		},
		{
			"buffer":0,
			"byteLength":288,
			"byteOffset":840,
			"target":34962
		},
		{
			"buffer":0,
			"byteLength":288,
			"byteOffset":1128,
			"target":34962
		},
		{
			"buffer":0,
			"byteLength":192,
			"byteOffset":1416,
			"target":34962
		},
		{
			"buffer":0,
			"byteLength":288,
			"byteOffset":1608,
			"target":34962
		},
		{
			"buffer":0,
			"byteLength":288,
			"byteOffset":1896,
			"target":34962
		},
		{
			"buffer":0,
			"byteLength":192,
			"byteOffset":2184,
			"target":34962
		},
		{
			"buffer":0,
			"byteLength":288,
			"byteOffset":2376,
			"target":34962
		},
		{
			"buffer":0,
			"byteLength":288,
			"byteOffset":2664,
			"target":34962
		},
		{
			"buffer":0,
			"byteLength":192,
			"byteOffset":2952,
			"target":34962
		},
		{
			"buffer":0,
			"byteLength":72,
			"byteOffset":3144,
			"target":34963
		},
		{
			"buffer":0,
			"byteLength":288,
			"byteOffset":3216,
			"target":34962
		},
		{
			"buffer":0,
			"byteLength":288,
			"byteOffset":3504,
			"target":34962
		},
		{
			"buffer":0,
			"byteLength":192,
			"byteOffset":3792,
			"target":34962
		},
		{
			"buffer":0,
			"byteLength":72,
			"byteOffset":3984,
			"target":34963
		},
		{
			"buffer":0,
			"byteLength":288,
			"byteOffset":4056,
			"target":34962
		},
		{
			"buffer":0,
			"byteLength":288,
			"byteOffset":4344,
			"target":34962
		},
		{
			"buffer":0,
			"byteLength":192,
			"byteOffset":4632,
			"target":34962
		},
		{
			"buffer":0,
			"byteLength":288,
			"byteOffset":4824,
			"target":34962
		},
		{
			"buffer":0,
			"byteLength":288,
			"byteOffset":5112,
			"target":34962
		},
		{
			"buffer":0,
			"byteLength":192,
			"byteOffset":5400,
			"target":34962
		},
		{
			"buffer":0,
			"byteLength":288,
			"byteOffset":5592,
			"target":34962
		},
		{
			"buffer":0,
			"byteLength":288,
			"byteOffset":5880,
			"target":34962
		},
		{
			"buffer":0,
			"byteLength":192,
			"byteOffset":6168,
			"target":34962
		},
		{
			"buffer":0,
			"byteLength":288,
			"byteOffset":6360,
			"target":34962
		},
		{
			"buffer":0,
			"byteLength":288,
			"byteOffset":6648,
			"target":34962
		},
		{
			"buffer":0,
			"byteLength":192,
			"byteOffset":6936,
			"target":34962
		},
		{
			"buffer":0,
			"byteLength":288,
			"byteOffset":7128,
			"target":34962
		},
		{
			"buffer":0,
			"byteLength":288,
			"byteOffset":7416,
			"target":34962
		},
		{
			"buffer":0,
			"byteLength":192,
			"byteOffset":7704,
			"target":34962
		},
		{
			"buffer":0,
			"byteLength":288,
			"byteOffset":7896,
			"target":34962
		},
		{
			"buffer":0,
			"byteLength":288,
			"byteOffset":8184,
			"target":34962
		},
		{
			"buffer":0,
			"byteLength":192,
			"byteOffset":8472,
			"target":34962
		},
		{
			"buffer":0,
			"byteLength":288,
			"byteOffset":8664,
			"target":34962
		},
		{
			"buffer":0,
			"byteLength":288,
			"byteOffset":8952,
			"target":34962
		},
		{
			"buffer":0,
			"byteLength":192,
			"byteOffset":9240,
			"target":34962
		},
		{
			"buffer":0,
			"byteLength":288,
			"byteOffset":9432,
			"target":34962
		},
		{
			"buffer":0,
			"byteLength":288,
			"byteOffset":9720,
			"target":34962
		},
		{
			"buffer":0,
			"byteLength":192,
			"byteOffset":10008,
			"target":34962
		},
		{
			"buffer":0,
			"byteLength":288,
			"byteOffset":10200,
			"target":34962
		},
		{
			"buffer":0,
			"byteLength":288,
			"byteOffset":10488,
			"target":34962
		},
		{
			"buffer":0,
			"byteLength":192,
			"byteOffset":10776,
			"target":34962
		},
		{
			"buffer":0,
			"byteLength":288,
			"byteOffset":10968,
			"target":34962
		},
		{
			"buffer":0,
			"byteLength":288,
			"byteOffset":11256,
			"target":34962
		},
		{
			"buffer":0,
			"byteLength":192,
			"byteOffset":11544,
			"target":34962
		},
		{
			"buffer":0,
			"byteLength":72,
			"byteOffset":11736,
			"target":34963
		},
		{
			"buffer":0,
			"byteLength":288,
			"byteOffset":11808,
			"target":34962
		},
		{
			"buffer":0,
			"byteLength":288,
			"byteOffset":12096,
			"target":34962
		},
		{
			"buffer":0,
			"byteLength":192,
			"byteOffset":12384,
			"target":34962
		},
		{
			"buffer":0,
			"byteLength":288,
			"byteOffset":12576,
			"target":34962
		},
		{
			"buffer":0,
			"byteLength":288,
			"byteOffset":12864,
			"target":34962
		},
		{
			"buffer":0,
			"byteLength":192,
			"byteOffset":13152,
			"target":34962
		},
		{
			"buffer":0,
			"byteLength":288,
			"byteOffset":13344,
			"target":34962
		},
		{
			"buffer":0,
			"byteLength":288,
			"byteOffset":13632,
			"target":34962
		},
		{
			"buffer":0,
			"byteLength":192,
			"byteOffset":13920,
			"target":34962
		},
		{
			"buffer":0,
			"byteLength":288,
			"byteOffset":14112,
			"target":34962
		},
		{
			"buffer":0,
			"byteLength":288,
			"byteOffset":14400,
			"target":34962
		},
		{
			"buffer":0,
			"byteLength":192,
			"byteOffset":14688,
			"target":34962
		},
		{
			"buffer":0,
			"byteLength":288,
			"byteOffset":14880,
			"target":34962
		},
		{
			"buffer":0,
			"byteLength":288,
			"byteOffset":15168,
			"target":34962
		},
		{
			"buffer":0,
			"byteLength":192,
			"byteOffset":15456,
			"target":34962
		},
		{
			"buffer":0,
			"byteLength":288,
			"byteOffset":15648,
			"target":34962
		},
		{
			"buffer":0,
			"byteLength":288,
			"byteOffset":15936,
			"target":34962
		},
		{
			"buffer":0,
			"byteLength":192,
			"byteOffset":16224,
			"target":34962
		},
		{
			"buffer":0,
			"byteLength":72,
			"byteOffset":16416,
			"target":34963
		},
		{
			"buffer":0,
			"byteLength":288,
			"byteOffset":16488,
			"target":34962
		},
		{
			"buffer":0,
			"byteLength":288,
			"byteOffset":16776,
			"target":34962
		},
		{
			"buffer":0,
			"byteLength":192,
			"byteOffset":17064,
			"target":34962
		},
		{
			"buffer":0,
			"byteLength":288,
			"byteOffset":17256,
			"target":34962
		},
		{
			"buffer":0,
			"byteLength":288,
			"byteOffset":17544,
			"target":34962
		},
		{
			"buffer":0,
			"byteLength":192,
			"byteOffset":17832,
			"target":34962
		},
		{
			"buffer":0,
			"byteLength":288,
			"byteOffset":18024,
			"target":34962
		},
		{
			"buffer":0,
			"byteLength":288,
			"byteOffset":18312,
			"target":34962
		},
		{
			"buffer":0,
			"byteLength":192,
			"byteOffset":18600,
			"target":34962
		},
		{
			"buffer":0,
			"byteLength":288,
			"byteOffset":18792,
			"target":34962
		},
		{
			"buffer":0,
			"byteLength":288,
			"byteOffset":19080,
			"target":34962
		},
		{
			"buffer":0,
			"byteLength":192,
			"byteOffset":19368,
			"target":34962
		},
		{
			"buffer":0,
			"byteLength":288,
			"byteOffset":19560,
			"target":34962
		},
		{
			"buffer":0,
			"byteLength":288,
			"byteOffset":19848,
			"target":34962
		},
		{
			"buffer":0,
			"byteLength":192,
			"byteOffset":20136,
			"target":34962
		},
		{
			"buffer":0,
			"byteLength":288,
			"byteOffset":20328,
			"target":34962
		},
		{
			"buffer":0,
			"byteLength":288,
			"byteOffset":20616,
			"target":34962
		},
		{
			"buffer":0,
			"byteLength":192,
			"byteOffset":20904,
			"target":34962
		},
		{
			"buffer":0,
			"byteLength":288,
			"byteOffset":21096,
			"target":34962
		},
		{
			"buffer":0,
			"byteLength":288,
			"byteOffset":21384,
			"target":34962
		},
		{
			"buffer":0,
			"byteLength":192,
			"byteOffset":21672,
			"target":34962
		},
		{
			"buffer":0,
			"byteLength":288,
			"byteOffset":21864,
			"target":34962
		},
		{
			"buffer":0,
			"byteLength":288,
			"byteOffset":22152,
			"target":34962
		},
		{
			"buffer":0,
			"byteLength":192,
			"byteOffset":22440,
			"target":34962
		},
		{
			"buffer":0,
			"byteLength":288,
			"byteOffset":22632,
			"target":34962
		},
		{
			"buffer":0,
			"byteLength":288,
			"byteOffset":22920,
			"target":34962
		},
		{
			"buffer":0,
			"byteLength":192,
			"byteOffset":23208,
			"target":34962
		},
		{
			"buffer":0,
			"byteLength":288,
			"byteOffset":23400,
			"target":34962
		},
		{
			"buffer":0,
			"byteLength":288,
			"byteOffset":23688,
			"target":34962
		},
		{
			"buffer":0,
			"byteLength":192,
			"byteOffset":23976,
			"target":34962
		},
		{
			"buffer":0,
			"byteLength":288,
			"byteOffset":24168,
			"target":34962
		},
		{
			"buffer":0,
			"byteLength":288,
			"byteOffset":24456,
			"target":34962
		},
		{
			"buffer":0,
			"byteLength":192,
			"byteOffset":24744,
			"target":34962
		},
		{
			"buffer":0,
			"byteLength":288,
			"byteOffset":24936,
			"target":34962
		},
		{
			"buffer":0,
			"byteLength":288,
			"byteOffset":25224,
			"target":34962
		},
		{
			"buffer":0,
			"byteLength":192,
			"byteOffset":25512,
			"target":34962
		},
		{
			"buffer":0,
			"byteLength":288,
			"byteOffset":25704,
			"target":34962
		},
		{
			"buffer":0,
			"byteLength":288,
			"byteOffset":25992,
			"target":34962
		},
		{
			"buffer":0,
			"byteLength":192,
			"byteOffset":26280,
			"target":34962
		},
		{
			"buffer":0,
			"byteLength":288,
			"byteOffset":26472,
			"target":34962
		},
		{
			"buffer":0,
			"byteLength":288,
			"byteOffset":26760,
			"target":34962
		},
		{
			"buffer":0,
			"byteLength":192,
			"byteOffset":27048,
			"target":34962
		},
		{
			"buffer":0,
			"byteLength":288,
			"byteOffset":27240,
			"target":34962
		},
		{
			"buffer":0,
			"byteLength":288,
			"byteOffset":27528,
			"target":34962
		},
		{
			"buffer":0,
			"byteLength":192,
			"byteOffset":27816,
			"target":34962
		},
		{
			"buffer":0,
			"byteLength":288,
			"byteOffset":28008,
			"target":34962
		},
		{
			"buffer":0,
			"byteLength":288,
			"byteOffset":28296,
			"target":34962
		},
		{
			"buffer":0,
			"byteLength":192,
			"byteOffset":28584,
			"target":34962
		},
		{
			"buffer":0,
			"byteLength":288,
			"byteOffset":28776,
			"target":34962
		},
		{
			"buffer":0,
			"byteLength":288,
			"byteOffset":29064,
			"target":34962
		},
		{
			"buffer":0,
			"byteLength":192,
			"byteOffset":29352,
			"target":34962
		},
		{
			"buffer":0,
			"byteLength":288,
			"byteOffset":29544,
			"target":34962
		},
		{
			"buffer":0,
			"byteLength":288,
			"byteOffset":29832,
			"target":34962
		},
		{
			"buffer":0,
			"byteLength":192,
			"byteOffset":30120,
			"target":34962
		},
		{
			"buffer":0,
			"byteLength":288,
			"byteOffset":30312,
			"target":34962
		},
		{
			"buffer":0,
			"byteLength":288,
			"byteOffset":30600,
			"target":34962
		},
		{
			"buffer":0,
			"byteLength":192,
			"byteOffset":30888,
			"target":34962
		},
		{
			"buffer":0,
			"byteLength":288,
			"byteOffset":31080,
			"target":34962
		},
		{
			"buffer":0,
			"byteLength":288,
			"byteOffset":31368,
			"target":34962
		},
		{
			"buffer":0,
			"byteLength":192,
			"byteOffset":31656,
			"target":34962
		},
		{
			"buffer":0,
			"byteLength":288,
			"byteOffset":31848,
			"target":34962
		},
		{
			"buffer":0,
			"byteLength":288,
			"byteOffset":32136,
			"target":34962
		},
		{
			"buffer":0,
			"byteLength":192,
			"byteOffset":32424,
			"target":34962
		},
		{
			"buffer":0,
			"byteLength":288,
			"byteOffset":32616,
			"target":34962
		},
		{
			"buffer":0,
			"byteLength":288,
			"byteOffset":32904,
			"target":34962
		},
		{
			"buffer":0,
			"byteLength":192,
			"byteOffset":33192,
			"target":34962
		},
		{
			"buffer":0,
			"byteLength":288,
			"byteOffset":33384,
			"target":34962
		},
		{
			"buffer":0,
			"byteLength":288,
			"byteOffset":33672,
			"target":34962
		},
		{
			"buffer":0,
			"byteLength":192,
			"byteOffset":33960,
			"target":34962
		},
		{
			"buffer":0,
			"byteLength":288,
			"byteOffset":34152,
			"target":34962
		},
		{
			"buffer":0,
			"byteLength":288,
			"byteOffset":34440,
			"target":34962
		},
		{
			"buffer":0,
			"byteLength":192,
			"byteOffset":34728,
			"target":34962
		},
		{
			"buffer":0,
			"byteLength":288,
			"byteOffset":34920,
			"target":34962
		},
		{
			"buffer":0,
			"byteLength":288,
			"byteOffset":35208,
			"target":34962
		},
		{
			"buffer":0,
			"byteLength":192,
			"byteOffset":35496,
			"target":34962
		},
		{
			"buffer":0,
			"byteLength":288,
			"byteOffset":35688,
			"target":34962
		},
		{
			"buffer":0,
			"byteLength":288,
			"byteOffset":35976,
			"target":34962
		},
		{
			"buffer":0,
			"byteLength":192,
			"byteOffset":36264,
			"target":34962
		},
		{
			"buffer":0,
			"byteLength":288,
			"byteOffset":36456,
			"target":34962
		},
		{
			"buffer":0,
			"byteLength":288,
			"byteOffset":36744,
			"target":34962
		},
		{
			"buffer":0,
			"byteLength":192,
			"byteOffset":37032,
			"target":34962
		},
		{
			"buffer":0,
			"byteLength":288,
			"byteOffset":37224,
			"target":34962
		},
		{
			"buffer":0,
			"byteLength":288,
			"byteOffset":37512,
			"target":34962
		},
		{
			"buffer":0,
			"byteLength":192,
			"byteOffset":37800,
			"target":34962
		},
		{
			"buffer":0,
			"byteLength":288,
			"byteOffset":37992,
			"target":34962
		},
		{
			"buffer":0,
			"byteLength":288,
			"byteOffset":38280,
			"target":34962
		},
		{
			"buffer":0,
			"byteLength":192,
			"byteOffset":38568,
			"target":34962
		},
		{
			"buffer":0,
			"byteLength":288,
			"byteOffset":38760,
			"target":34962
		},
		{
			"buffer":0,
			"byteLength":288,
			"byteOffset":39048,
			"target":34962
		},
		{
			"buffer":0,
			"byteLength":192,
			"byteOffset":39336,
			"target":34962
		},
		{
			"buffer":0,
			"byteLength":288,
			"byteOffset":39528,
			"target":34962
		},
		{
			"buffer":0,
			"byteLength":288,
			"byteOffset":39816,
			"target":34962
		},
		{
			"buffer":0,
			"byteLength":192,
			"byteOffset":40104,
			"target":34962
		},
		{
			"buffer":0,
			"byteLength":288,
			"byteOffset":40296,
			"target":34962
		},
		{
			"buffer":0,
			"byteLength":288,
			"byteOffset":40584,
			"target":34962
		},
		{
			"buffer":0,
			"byteLength":192,
			"byteOffset":40872,
			"target":34962
		},
		{
			"buffer":0,
			"byteLength":288,
			"byteOffset":41064,
			"target":34962
		},
		{
			"buffer":0,
			"byteLength":288,
			"byteOffset":41352,
			"target":34962
		},
		{
			"buffer":0,
			"byteLength":192,
			"byteOffset":41640,
			"target":34962
		},
		{
			"buffer":0,
			"byteLength":288,
			"byteOffset":41832,
			"target":34962
		},
		{
			"buffer":0,
			"byteLength":288,
			"byteOffset":42120,
			"target":34962
		},
		{
			"buffer":0,
			"byteLength":192,
			"byteOffset":42408,
			"target":34962
		},
		{
			"buffer":0,
			"byteLength":288,
			"byteOffset":42600,
			"target":34962
		},
		{
			"buffer":0,
			"byteLength":288,
			"byteOffset":42888,
			"target":34962
		},
		{
			"buffer":0,
			"byteLength":192,
			"byteOffset":43176,
			"target":34962
		},
		{
			"buffer":0,
			"byteLength":288,
			"byteOffset":43368,
			"target":34962
		},
		{
			"buffer":0,
			"byteLength":288,
			"byteOffset":43656,
			"target":34962
		},
		{
			"buffer":0,
			"byteLength":192,
			"byteOffset":43944,
			"target":34962
		},
		{
			"buffer":0,
			"byteLength":288,
			"byteOffset":44136,
			"target":34962
		},
		{
			"buffer":0,
			"byteLength":288,
			"byteOffset":44424,
			"target":34962
		},
		{
			"buffer":0,
			"byteLength":192,
			"byteOffset":44712,
			"target":34962
		},
		{
			"buffer":0,
			"byteLength":288,
			"byteOffset":44904,
			"target":34962
		},
		{
			"buffer":0,
			"byteLength":288,
			"byteOffset":45192,
			"target":34962
		},
		{
			"buffer":0,
			"byteLength":192,
			"byteOffset":45480,
			"target":34962
		},
		{
			"buffer":0,
			"byteLength":288,
			"byteOffset":45672,
			"target":34962
		},
		{
			"buffer":0,
			"byteLength":288,
			"byteOffset":45960,
			"target":34962
		},
		{
			"buffer":0,
			"byteLength":192,
			"byteOffset":46248,
			"target":34962
		},
		{
			"buffer":0,
			"byteLength":288,
			"byteOffset":46440,
			"target":34962
		},
		{
			"buffer":0,
			"byteLength":288,
			"byteOffset":46728,
			"target":34962
		},
		{
			"buffer":0,
			"byteLength":192,
			"byteOffset":47016,
			"target":34962
		},
		{
			"buffer":0,
			"byteLength":288,
			"byteOffset":47208,
			"target":34962
		},
		{
			"buffer":0,
			"byteLength":288,
			"byteOffset":47496,
			"target":34962
		},
		{
			"buffer":0,
			"byteLength":192,
			"byteOffset":47784,
			"target":34962
		},
		{
			"buffer":0,
			"byteLength":288,
			"byteOffset":47976,
			"target":34962
		},
		{
			"buffer":0,
			"byteLength":288,
			"byteOffset":48264,
			"target":34962
		},
		{
			"buffer":0,
			"byteLength":192,
			"byteOffset":48552,
			"target":34962
		},
		{
			"buffer":0,
			"byteLength":288,
			"byteOffset":48744,
			"target":34962
		},
		{
			"buffer":0,
			"byteLength":288,
			"byteOffset":49032,
			"target":34962
		},
		{
			"buffer":0,
			"byteLength":192,
			"byteOffset":49320,
			"target":34962
		},
		{
			"buffer":0,
			"byteLength":288,
			"byteOffset":49512,
			"target":34962
		},
		{
			"buffer":0,
			"byteLength":288,
			"byteOffset":49800,
			"target":34962
		},
		{
			"buffer":0,
			"byteLength":192,
			"byteOffset":50088,
			"target":34962
		},
		{
			"buffer":0,
			"byteLength":288,
			"byteOffset":50280,
			"target":34962
		},
		{
			"buffer":0,
			"byteLength":288,
			"byteOffset":50568,
			"target":34962
		},
		{
			"buffer":0,
			"byteLength":192,
			"byteOffset":50856,
			"target":34962
		},
		{
			"buffer":0,
			"byteLength":288,
			"byteOffset":51048,
			"target":34962
		},
		{
			"buffer":0,
			"byteLength":288,
			"byteOffset":51336,
			"target":34962
		},
		{
			"buffer":0,
			"byteLength":192,
			"byteOffset":51624,
			"target":34962
		},
		{
			"buffer":0,
			"byteLength":288,
			"byteOffset":51816,
			"target":34962
		},
		{
			"buffer":0,
			"byteLength":288,
			"byteOffset":52104,
			"target":34962
		},
		{
			"buffer":0,
			"byteLength":192,
			"byteOffset":52392,
			"target":34962
		},
		{
			"buffer":0,
			"byteLength":288,
			"byteOffset":52584,
			"target":34962
		},
		{
			"buffer":0,
			"byteLength":288,
			"byteOffset":52872,
			"target":34962
		},
		{
			"buffer":0,
			"byteLength":192,
			"byteOffset":53160,
			"target":34962
		},
		{
			"buffer":0,
			"byteLength":288,
			"byteOffset":53352,
			"target":34962
		},
		{
			"buffer":0,
			"byteLength":288,
			"byteOffset":53640,
			"target":34962
		},
		{
			"buffer":0,
			"byteLength":192,
			"byteOffset":53928,
			"target":34962
		},
		{
			"buffer":0,
			"byteLength":288,
			"byteOffset":54120,
			"target":34962
		},
		{
			"buffer":0,
			"byteLength":288,
			"byteOffset":54408,
			"target":34962
		},
		{
			"buffer":0,
			"byteLength":192,
			"byteOffset":54696,
			"target":34962
		},
		{
			"buffer":0,
			"byteLength":288,
			"byteOffset":54888,
			"target":34962
		},
		{
			"buffer":0,
			"byteLength":288,
			"byteOffset":55176,
			"target":34962
		},
		{
			"buffer":0,
			"byteLength":192,
			"byteOffset":55464,
			"target":34962
		},
		{
			"buffer":0,
			"byteLength":288,
			"byteOffset":55656,
			"target":34962
		},
		{
			"buffer":0,
			"byteLength":288,
			"byteOffset":55944,
			"target":34962
		},
		{
			"buffer":0,
			"byteLength":192,
			"byteOffset":56232,
			"target":34962
		},
		{
			"buffer":0,
			"byteLength":288,
			"byteOffset":56424,
			"target":34962
		},
		{
			"buffer":0,
			"byteLength":288,
			"byteOffset":56712,
			"target":34962
		},
		{
			"buffer":0,
			"byteLength":192,
			"byteOffset":57000,
			"target":34962
		},
		{
			"buffer":0,
			"byteLength":288,
			"byteOffset":57192,
			"target":34962
		},
		{
			"buffer":0,
			"byteLength":288,
			"byteOffset":57480,
			"target":34962
		},
		{
			"buffer":0,
			"byteLength":192,
			"byteOffset":57768,
			"target":34962
		},
		{
			"buffer":0,
			"byteLength":288,
			"byteOffset":57960,
			"target":34962
		},
		{
			"buffer":0,
			"byteLength":288,
			"byteOffset":58248,
			"target":34962
		},
		{
			"buffer":0,
			"byteLength":192,
			"byteOffset":58536,
			"target":34962
		},
		{
			"buffer":0,
			"byteLength":288,
			"byteOffset":58728,
			"target":34962
		},
		{
			"buffer":0,
			"byteLength":288,
			"byteOffset":59016,
			"target":34962
		},
		{
			"buffer":0,
			"byteLength":192,
			"byteOffset":59304,
			"target":34962
		},
		{
			"buffer":0,
			"byteLength":288,
			"byteOffset":59496,
			"target":34962
		},
		{
			"buffer":0,
			"byteLength":288,
			"byteOffset":59784,
			"target":34962
		},
		{
			"buffer":0,
			"byteLength":192,
			"byteOffset":60072,
			"target":34962
		},
		{
			"buffer":0,
			"byteLength":288,
			"byteOffset":60264,
			"target":34962
		},
		{
			"buffer":0,
			"byteLength":288,
			"byteOffset":60552,
			"target":34962
		},
		{
			"buffer":0,
			"byteLength":192,
			"byteOffset":60840,
			"target":34962
		},
		{
			"buffer":0,
			"byteLength":288,
			"byteOffset":61032,
			"target":34962
		},
		{
			"buffer":0,
			"byteLength":288,
			"byteOffset":61320,
			"target":34962
		},
		{
			"buffer":0,
			"byteLength":192,
			"byteOffset":61608,
			"target":34962
		},
		{
			"buffer":0,
			"byteLength":288,
			"byteOffset":61800,
			"target":34962
		},
		{
			"buffer":0,
			"byteLength":288,
			"byteOffset":62088,
			"target":34962
		},
		{
			"buffer":0,
			"byteLength":192,
			"byteOffset":62376,
			"target":34962
		},
		{
			"buffer":0,
			"byteLength":288,
			"byteOffset":62568,
			"target":34962
		},
		{
			"buffer":0,
			"byteLength":288,
			"byteOffset":62856,
			"target":34962
		},
		{
			"buffer":0,
			"byteLength":192,
			"byteOffset":63144,
			"target":34962
		},
		{
			"buffer":0,
			"byteLength":288,
			"byteOffset":63336,
			"target":34962
		},
		{
			"buffer":0,
			"byteLength":288,
			"byteOffset":63624,
			"target":34962
		},
		{
			"buffer":0,
			"byteLength":192,
			"byteOffset":63912,
			"target":34962
		},
		{
			"buffer":0,
			"byteLength":288,
			"byteOffset":64104,
			"target":34962
		},
		{
			"buffer":0,
			"byteLength":288,
			"byteOffset":64392,
			"target":34962
		},
		{
			"buffer":0,
			"byteLength":192,
			"byteOffset":64680,
			"target":34962
		},
		{
			"buffer":0,
			"byteLength":288,
			"byteOffset":64872,
			"target":34962
		},
		{
			"buffer":0,
			"byteLength":288,
			"byteOffset":65160,
			"target":34962
		},
		{
			"buffer":0,
			"byteLength":192,
			"byteOffset":65448,
			"target":34962
		},
		{
			"buffer":0,
			"byteLength":288,
			"byteOffset":65640,
			"target":34962
		},
		{
			"buffer":0,
			"byteLength":288,
			"byteOffset":65928,
			"target":34962
		},
		{
			"buffer":0,
			"byteLength":192,
			"byteOffset":66216,
			"target":34962
		},
		{
			"buffer":0,
			"byteLength":288,
			"byteOffset":66408,
			"target":34962
		},
		{
			"buffer":0,
			"byteLength":288,
			"byteOffset":66696,
			"target":34962
		},
		{
			"buffer":0,
			"byteLength":192,
			"byteOffset":66984,
			"target":34962
		},
		{
			"buffer":0,
			"byteLength":288,
			"byteOffset":67176,
			"target":34962
		},
		{
			"buffer":0,
			"byteLength":288,
			"byteOffset":67464,
			"target":34962
		},
		{
			"buffer":0,
			"byteLength":192,
			"byteOffset":67752,
			"target":34962
		},
		{
			"buffer":0,
			"byteLength":288,
			"byteOffset":67944,
			"target":34962
		},
		{
			"buffer":0,
			"byteLength":288,
			"byteOffset":68232,
			"target":34962
		},
		{
			"buffer":0,
			"byteLength":192,
			"byteOffset":68520,
			"target":34962
		},
		{
			"buffer":0,
			"byteLength":288,
			"byteOffset":68712,
			"target":34962
		},
		{
			"buffer":0,
			"byteLength":288,
			"byteOffset":69000,
			"target":34962
		},
		{
			"buffer":0,
			"byteLength":192,
			"byteOffset":69288,
			"target":34962
		},
		{
			"buffer":0,
			"byteLength":288,
			"byteOffset":69480,
			"target":34962
		},
		{
			"buffer":0,
			"byteLength":288,
			"byteOffset":69768,
			"target":34962
		},
		{
			"buffer":0,
			"byteLength":192,
			"byteOffset":70056,
			"target":34962
		},
		{
			"buffer":0,
			"byteLength":288,
			"byteOffset":70248,
			"target":34962
		},
		{
			"buffer":0,
			"byteLength":288,
			"byteOffset":70536,
			"target":34962
		},
		{
			"buffer":0,
			"byteLength":192,
			"byteOffset":70824,
			"target":34962
		},
		{
			"buffer":0,
			"byteLength":288,
			"byteOffset":71016,
			"target":34962
		},
		{
			"buffer":0,
			"byteLength":288,
			"byteOffset":71304,
			"target":34962
		},
		{
			"buffer":0,
			"byteLength":192,
			"byteOffset":71592,
			"target":34962
		},
		{
			"buffer":0,
			"byteLength":288,
			"byteOffset":71784,
			"target":34962
		},
		{
			"buffer":0,
			"byteLength":288,
			"byteOffset":72072,
			"target":34962
		},
		{
			"buffer":0,
			"byteLength":192,
			"byteOffset":72360,
			"target":34962
		},
		{
			"buffer":0,
			"byteLength":288,
			"byteOffset":72552,
			"target":34962
		},
		{
			"buffer":0,
			"byteLength":288,
			"byteOffset":72840,
			"target":34962
		},
		{
			"buffer":0,
			"byteLength":192,
			"byteOffset":73128,
			"target":34962
		},
		{
			"buffer":0,
			"byteLength":288,
			"byteOffset":73320,
			"target":34962
		},
		{
			"buffer":0,
			"byteLength":288,
			"byteOffset":73608,
			"target":34962
		},
		{
			"buffer":0,
			"byteLength":192,
			"byteOffset":73896,
			"target":34962
		},
		{
			"buffer":0,
			"byteLength":288,
			"byteOffset":74088,
			"target":34962
		},
		{
			"buffer":0,
			"byteLength":288,
			"byteOffset":74376,
			"target":34962
		},
		{
			"buffer":0,
			"byteLength":192,
			"byteOffset":74664,
			"target":34962
		},
		{
			"buffer":0,
			"byteLength":72,
			"byteOffset":74856,
			"target":34963
		},
		{
			"buffer":0,
			"byteLength":288,
			"byteOffset":74928,
			"target":34962
		},
		{
			"buffer":0,
			"byteLength":288,
			"byteOffset":75216,
			"target":34962
		},
		{
			"buffer":0,
			"byteLength":192,
			"byteOffset":75504,
			"target":34962
		},
		{
			"buffer":0,
			"byteLength":72,
			"byteOffset":75696,
			"target":34963
		},
		{
			"buffer":0,
			"byteLength":288,
			"byteOffset":75768,
			"target":34962
		},
		{
			"buffer":0,
			"byteLength":288,
			"byteOffset":76056,
			"target":34962
		},
		{
			"buffer":0,
			"byteLength":192,
			"byteOffset":76344,
			"target":34962
		},
		{
			"buffer":0,
			"byteLength":288,
			"byteOffset":76536,
			"target":34962
		},
		{
			"buffer":0,
			"byteLength":288,
			"byteOffset":76824,
			"target":34962
		},
		{
			"buffer":0,
			"byteLength":192,
			"byteOffset":77112,
			"target":34962
		},
		{
			"buffer":0,
			"byteLength":72,
			"byteOffset":77304,
			"target":34963
		},
		{
			"buffer":0,
			"byteLength":288,
			"byteOffset":77376,
			"target":34962
		},
		{
			"buffer":0,
			"byteLength":288,
			"byteOffset":77664,
			"target":34962
		},
		{
			"buffer":0,
			"byteLength":192,
			"byteOffset":77952,
			"target":34962
		},
		{
			"buffer":0,
			"byteLength":288,
			"byteOffset":78144,
			"target":34962
		},
		{
			"buffer":0,
			"byteLength":288,
			"byteOffset":78432,
			"target":34962
		},
		{
			"buffer":0,
			"byteLength":192,
			"byteOffset":78720,
			"target":34962
		},
		{
			"buffer":0,
			"byteLength":288,
			"byteOffset":78912,
			"target":34962
		},
		{
			"buffer":0,
			"byteLength":288,
			"byteOffset":79200,
			"target":34962
		},
		{
			"buffer":0,
			"byteLength":192,
			"byteOffset":79488,
			"target":34962
		},
		{
			"buffer":0,
			"byteLength":288,
			"byteOffset":79680,
			"target":34962
		},
		{
			"buffer":0,
			"byteLength":288,
			"byteOffset":79968,
			"target":34962
		},
		{
			"buffer":0,
			"byteLength":192,
			"byteOffset":80256,
			"target":34962
		},
		{
			"buffer":0,
			"byteLength":288,
			"byteOffset":80448,
			"target":34962
		},
		{
			"buffer":0,
			"byteLength":288,
			"byteOffset":80736,
			"target":34962
		},
		{
			"buffer":0,
			"byteLength":192,
			"byteOffset":81024,
			"target":34962
		},
		{
			"buffer":0,
			"byteLength":288,
			"byteOffset":81216,
			"target":34962
		},
		{
			"buffer":0,
			"byteLength":288,
			"byteOffset":81504,
			"target":34962
		},
		{
			"buffer":0,
			"byteLength":192,
			"byteOffset":81792,
			"target":34962
		}
	],
	"buffers":[
		{
			"byteLength":81984,
			"uri":"Physics.bin"
		}
	]
}
