# Blender 4.3.2
# www.blender.org
o Cylinder
v 0.000000 -0.500000 -0.500000
v 0.000000 0.500000 -0.500000
v 0.097545 -0.500000 -0.490393
v 0.097545 0.500000 -0.490393
v 0.191342 -0.500000 -0.461940
v 0.191342 0.500000 -0.461940
v 0.277785 -0.500000 -0.415735
v 0.277785 0.500000 -0.415735
v 0.353553 -0.500000 -0.353553
v 0.353553 0.500000 -0.353553
v 0.415735 -0.500000 -0.277785
v 0.415735 0.500000 -0.277785
v 0.461940 -0.500000 -0.191342
v 0.461940 0.500000 -0.191342
v 0.490393 -0.500000 -0.097545
v 0.490393 0.500000 -0.097545
v 0.500000 -0.500000 -0.000000
v 0.500000 0.500000 -0.000000
v 0.490393 -0.500000 0.097545
v 0.490393 0.500000 0.097545
v 0.461940 -0.500000 0.191342
v 0.461940 0.500000 0.191342
v 0.415735 -0.500000 0.277785
v 0.415735 0.500000 0.277785
v 0.353553 -0.500000 0.353553
v 0.353553 0.500000 0.353553
v 0.277785 -0.500000 0.415735
v 0.277785 0.500000 0.415735
v 0.191342 -0.500000 0.461940
v 0.191342 0.500000 0.461940
v 0.097545 -0.500000 0.490393
v 0.097545 0.500000 0.490393
v 0.000000 -0.500000 0.500000
v 0.000000 0.500000 0.500000
v -0.097545 -0.500000 0.490393
v -0.097545 0.500000 0.490393
v -0.191342 -0.500000 0.461940
v -0.191342 0.500000 0.461940
v -0.277785 -0.500000 0.415735
v -0.277785 0.500000 0.415735
v -0.353553 -0.500000 0.353553
v -0.353553 0.500000 0.353553
v -0.415735 -0.500000 0.277785
v -0.415735 0.500000 0.277785
v -0.461940 -0.500000 0.191342
v -0.461940 0.500000 0.191342
v -0.490393 -0.500000 0.097545
v -0.490393 0.500000 0.097545
v -0.500000 -0.500000 -0.000000
v -0.500000 0.500000 -0.000000
v -0.490393 -0.500000 -0.097545
v -0.490393 0.500000 -0.097545
v -0.461940 -0.500000 -0.191342
v -0.461940 0.500000 -0.191342
v -0.415735 -0.500000 -0.277785
v -0.415735 0.500000 -0.277785
v -0.353553 -0.500000 -0.353553
v -0.353553 0.500000 -0.353553
v -0.277785 -0.500000 -0.415735
v -0.277785 0.500000 -0.415735
v -0.191342 -0.500000 -0.461940
v -0.191342 0.500000 -0.461940
v -0.097545 -0.500000 -0.490393
v -0.097545 0.500000 -0.490393
vn 0.0980 -0.0000 -0.9952
vn 0.2903 -0.0000 -0.9569
vn 0.4714 -0.0000 -0.8819
vn 0.6344 -0.0000 -0.7730
vn 0.7730 -0.0000 -0.6344
vn 0.8819 -0.0000 -0.4714
vn 0.9569 -0.0000 -0.2903
vn 0.9952 -0.0000 -0.0980
vn 0.9952 -0.0000 0.0980
vn 0.9569 -0.0000 0.2903
vn 0.8819 -0.0000 0.4714
vn 0.7730 -0.0000 0.6344
vn 0.6344 -0.0000 0.7730
vn 0.4714 -0.0000 0.8819
vn 0.2903 -0.0000 0.9569
vn 0.0980 -0.0000 0.9952
vn -0.0980 -0.0000 0.9952
vn -0.2903 -0.0000 0.9569
vn -0.4714 -0.0000 0.8819
vn -0.6344 -0.0000 0.7730
vn -0.7730 -0.0000 0.6344
vn -0.8819 -0.0000 0.4714
vn -0.9569 -0.0000 0.2903
vn -0.9952 -0.0000 0.0980
vn -0.9952 -0.0000 -0.0980
vn -0.9569 -0.0000 -0.2903
vn -0.8819 -0.0000 -0.4714
vn -0.7730 -0.0000 -0.6344
vn -0.6344 -0.0000 -0.7730
vn -0.4714 -0.0000 -0.8819
vn -0.0000 1.0000 -0.0000
vn -0.2903 -0.0000 -0.9569
vn -0.0980 -0.0000 -0.9952
vn -0.0000 -1.0000 -0.0000
vt 0.499987 0.999987
vt 0.468737 0.681165
vt 0.499987 0.681165
vt 0.468737 0.999987
vt 0.437487 0.681165
vt 0.437487 0.999987
vt 0.406237 0.681165
vt 0.406237 0.999987
vt 0.374987 0.681165
vt 0.374987 0.999987
vt 0.343737 0.681165
vt 0.343737 0.999987
vt 0.312487 0.681165
vt 0.312487 0.999987
vt 0.281237 0.681165
vt 0.281237 0.999987
vt 0.249987 0.681165
vt 0.249987 0.999987
vt 0.218737 0.681165
vt 0.218737 0.999987
vt 0.187487 0.681165
vt 0.187487 0.999987
vt 0.156237 0.681165
vt 0.156237 0.999987
vt 0.124987 0.681165
vt 0.124987 0.999987
vt 0.093737 0.681165
vt 0.093737 0.999987
vt 0.062487 0.681165
vt 0.062487 0.999987
vt 0.031237 0.681165
vt 0.031237 0.999987
vt -0.000013 0.681165
vt 0.999987 0.999987
vt 0.968737 0.681165
vt 0.999987 0.681165
vt 0.968737 0.999987
vt 0.937487 0.681165
vt 0.937487 0.999987
vt 0.906237 0.681165
vt 0.906237 0.999987
vt 0.874987 0.681165
vt 0.874987 0.999987
vt 0.843737 0.681165
vt 0.843737 0.999987
vt 0.812487 0.681165
vt 0.812487 0.999987
vt 0.781237 0.681165
vt 0.781237 0.999987
vt 0.749987 0.681165
vt 0.749987 0.999987
vt 0.718737 0.681165
vt 0.718737 0.999987
vt 0.687487 0.681165
vt 0.687487 0.999987
vt 0.656237 0.681165
vt 0.656237 0.999987
vt 0.624987 0.681165
vt 0.624987 0.999987
vt 0.593737 0.681165
vt 0.593737 0.999987
vt 0.562487 0.681165
vt 0.274623 0.000000
vt 0.500000 0.274623
vt 0.225377 0.500000
vt 0.562487 0.999987
vt 0.531237 0.681165
vt 0.531237 0.999987
vt 0.868419 0.028453
vt 0.971547 0.368419
vt 0.631580 0.471547
vt -0.000013 0.999987
vt 0.177078 0.490393
vt 0.131581 0.471547
vt 0.090634 0.444188
vt 0.055812 0.409366
vt 0.028453 0.368419
vt 0.009607 0.322922
vt 0.000000 0.274623
vt 0.000000 0.225377
vt 0.009607 0.177078
vt 0.028453 0.131581
vt 0.055812 0.090634
vt 0.090634 0.055812
vt 0.131581 0.028453
vt 0.177078 0.009607
vt 0.225377 0.000000
vt 0.322922 0.009607
vt 0.368419 0.028453
vt 0.409366 0.055812
vt 0.444188 0.090634
vt 0.471547 0.131581
vt 0.490393 0.177078
vt 0.500000 0.225377
vt 0.490393 0.322922
vt 0.471547 0.368419
vt 0.444188 0.409366
vt 0.409366 0.444188
vt 0.368419 0.471547
vt 0.322922 0.490393
vt 0.274623 0.500000
vt 0.590634 0.444188
vt 0.555812 0.409366
vt 0.528453 0.368419
vt 0.509607 0.322922
vt 0.500000 0.274623
vt 0.500000 0.225377
vt 0.509607 0.177078
vt 0.528453 0.131581
vt 0.555812 0.090634
vt 0.590634 0.055812
vt 0.631581 0.028453
vt 0.677078 0.009607
vt 0.725377 0.000000
vt 0.774623 0.000000
vt 0.822922 0.009607
vt 0.909366 0.055812
vt 0.944188 0.090634
vt 0.971547 0.131581
vt 0.990393 0.177078
vt 1.000000 0.225377
vt 1.000000 0.274623
vt 0.990393 0.322922
vt 0.944188 0.409366
vt 0.909366 0.444188
vt 0.868419 0.471547
vt 0.822922 0.490393
vt 0.774623 0.500000
vt 0.725377 0.500000
vt 0.677078 0.490393
s 0
g default
f 2/1/1 3/2/1 1/3/1
f 4/4/2 5/5/2 3/2/2
f 6/6/3 7/7/3 5/5/3
f 8/8/4 9/9/4 7/7/4
f 10/10/5 11/11/5 9/9/5
f 12/12/6 13/13/6 11/11/6
f 14/14/7 15/15/7 13/13/7
f 16/16/8 17/17/8 15/15/8
f 18/18/9 19/19/9 17/17/9
f 20/20/10 21/21/10 19/19/10
f 22/22/11 23/23/11 21/21/11
f 24/24/12 25/25/12 23/23/12
f 26/26/13 27/27/13 25/25/13
f 28/28/14 29/29/14 27/27/14
f 30/30/15 31/31/15 29/29/15
f 32/32/16 33/33/16 31/31/16
f 34/34/17 35/35/17 33/36/17
f 36/37/18 37/38/18 35/35/18
f 38/39/19 39/40/19 37/38/19
f 40/41/20 41/42/20 39/40/20
f 42/43/21 43/44/21 41/42/21
f 44/45/22 45/46/22 43/44/22
f 46/47/23 47/48/23 45/46/23
f 48/49/24 49/50/24 47/48/24
f 50/51/25 51/52/25 49/50/25
f 52/53/26 53/54/26 51/52/26
f 54/55/27 55/56/27 53/54/27
f 56/57/28 57/58/28 55/56/28
f 58/59/29 59/60/29 57/58/29
f 60/61/30 61/62/30 59/60/30
f 38/63/31 22/64/31 6/65/31
f 62/66/32 63/67/32 61/62/32
f 64/68/33 1/3/33 63/67/33
f 31/69/34 47/70/34 63/71/34
f 2/1/1 4/4/1 3/2/1
f 4/4/2 6/6/2 5/5/2
f 6/6/3 8/8/3 7/7/3
f 8/8/4 10/10/4 9/9/4
f 10/10/5 12/12/5 11/11/5
f 12/12/6 14/14/6 13/13/6
f 14/14/7 16/16/7 15/15/7
f 16/16/8 18/18/8 17/17/8
f 18/18/9 20/20/9 19/19/9
f 20/20/10 22/22/10 21/21/10
f 22/22/11 24/24/11 23/23/11
f 24/24/12 26/26/12 25/25/12
f 26/26/13 28/28/13 27/27/13
f 28/28/14 30/30/14 29/29/14
f 30/30/15 32/32/15 31/31/15
f 32/32/16 34/72/16 33/33/16
f 34/34/17 36/37/17 35/35/17
f 36/37/18 38/39/18 37/38/18
f 38/39/19 40/41/19 39/40/19
f 40/41/20 42/43/20 41/42/20
f 42/43/21 44/45/21 43/44/21
f 44/45/22 46/47/22 45/46/22
f 46/47/23 48/49/23 47/48/23
f 48/49/24 50/51/24 49/50/24
f 50/51/25 52/53/25 51/52/25
f 52/53/26 54/55/26 53/54/26
f 54/55/27 56/57/27 55/56/27
f 56/57/28 58/59/28 57/58/28
f 58/59/29 60/61/29 59/60/29
f 60/61/30 62/66/30 61/62/30
f 6/65/31 4/73/31 2/74/31
f 2/74/31 64/75/31 62/76/31
f 62/76/31 60/77/31 58/78/31
f 58/78/31 56/79/31 54/80/31
f 54/80/31 52/81/31 50/82/31
f 50/82/31 48/83/31 46/84/31
f 46/84/31 44/85/31 42/86/31
f 42/86/31 40/87/31 38/63/31
f 38/63/31 36/88/31 34/89/31
f 34/89/31 32/90/31 30/91/31
f 30/91/31 28/92/31 26/93/31
f 26/93/31 24/94/31 22/64/31
f 22/64/31 20/95/31 18/96/31
f 18/96/31 16/97/31 14/98/31
f 14/98/31 12/99/31 10/100/31
f 10/100/31 8/101/31 6/65/31
f 6/65/31 2/74/31 62/76/31
f 62/76/31 58/78/31 54/80/31
f 54/80/31 50/82/31 46/84/31
f 46/84/31 42/86/31 38/63/31
f 38/63/31 34/89/31 30/91/31
f 30/91/31 26/93/31 22/64/31
f 22/64/31 18/96/31 14/98/31
f 14/98/31 10/100/31 6/65/31
f 6/65/31 62/76/31 54/80/31
f 54/80/31 46/84/31 38/63/31
f 38/63/31 30/91/31 22/64/31
f 22/64/31 14/98/31 6/65/31
f 6/65/31 54/80/31 38/63/31
f 62/66/32 64/68/32 63/67/32
f 64/68/33 2/1/33 1/3/33
f 63/71/34 1/102/34 3/103/34
f 3/103/34 5/104/34 7/105/34
f 7/105/34 9/106/34 11/107/34
f 11/107/34 13/108/34 15/109/34
f 15/109/34 17/110/34 19/111/34
f 19/111/34 21/112/34 23/113/34
f 23/113/34 25/114/34 27/115/34
f 27/115/34 29/116/34 31/69/34
f 31/69/34 33/117/34 35/118/34
f 35/118/34 37/119/34 39/120/34
f 39/120/34 41/121/34 43/122/34
f 43/122/34 45/123/34 47/70/34
f 47/70/34 49/124/34 51/125/34
f 51/125/34 53/126/34 55/127/34
f 55/127/34 57/128/34 59/129/34
f 59/129/34 61/130/34 63/71/34
f 63/71/34 3/103/34 7/105/34
f 7/105/34 11/107/34 15/109/34
f 15/109/34 19/111/34 23/113/34
f 23/113/34 27/115/34 31/69/34
f 31/69/34 35/118/34 39/120/34
f 39/120/34 43/122/34 47/70/34
f 47/70/34 51/125/34 55/127/34
f 55/127/34 59/129/34 63/71/34
f 63/71/34 7/105/34 15/109/34
f 15/109/34 23/113/34 31/69/34
f 31/69/34 39/120/34 47/70/34
f 47/70/34 55/127/34 63/71/34
f 63/71/34 15/109/34 31/69/34
