# Blender 4.3.2
# www.blender.org
o Missing
v -0.356500 -0.499100 -0.121000
v -0.499100 -0.356500 -0.121000
v 0.356500 0.499100 -0.121000
v 0.499100 0.356500 -0.121000
v -0.499100 -0.356500 0.121000
v -0.356500 -0.499100 0.121000
v 0.499100 0.356500 0.121000
v 0.356500 0.499100 0.121000
v -0.499100 0.356500 0.121000
v -0.356500 0.499100 0.121000
v -0.356500 0.499100 -0.121000
v -0.499100 0.356500 -0.121000
v 0.499100 -0.356500 -0.121000
v 0.356500 -0.499100 -0.121000
v 0.499100 -0.356500 0.121000
v 0.356500 -0.499100 0.121000
v 0.142600 0.000000 0.121000
v 0.000000 -0.142600 0.121000
v 0.000000 0.142600 0.121000
v -0.142600 0.000000 0.121000
v 0.000000 0.142600 -0.121000
v -0.142600 -0.000000 -0.121000
v 0.142600 -0.000000 -0.121000
v 0.000000 -0.142600 -0.121000
vn 0.7071 0.7071 -0.0000
vn -0.7071 0.7071 -0.0000
vn -0.7071 -0.7071 -0.0000
vn 0.7071 -0.7071 -0.0000
vn -0.0000 -0.0000 1.0000
vn -0.0000 -0.0000 -1.0000
vt 0.719290 0.252538
vt 0.578935 0.000000
vt 0.719290 0.000000
vt 0.578935 0.252538
vt 0.719290 0.505076
vt 0.578935 0.505076
vt 0.719290 0.505077
vt 0.578935 0.757615
vt 0.578935 0.505077
vt 0.859645 0.000000
vt 0.719290 0.252538
vt 0.719290 0.000000
vt 0.859645 0.626295
vt 0.976607 0.505076
vt 0.976607 0.626295
vt 0.859645 0.747513
vt 0.976607 0.747513
vt 0.859645 0.252538
vt 0.719290 0.505076
vt 0.496230 0.000000
vt 0.372172 0.250000
vt 0.289467 0.178572
vt 0.578935 0.928571
vt 0.289467 0.821428
vt 0.372172 0.750000
vt 0.289467 0.678572
vt 0.000000 0.571428
vt 0.082705 0.500000
vt 0.206763 0.750000
vt 0.578935 0.571429
vt 0.496230 0.500000
vt 0.206763 0.250000
vt 0.082705 0.500000
vt 0.000000 0.428571
vt 0.289467 0.321428
vt 0.719290 0.505076
vt 0.859645 0.757615
vt 0.719290 0.757615
vt 0.082705 0.000000
vt 0.000000 0.071428
vt 0.496230 0.500000
vt 0.859645 0.252538
vt 1.000000 0.000000
vt 1.000000 0.252538
vt 0.859645 0.868731
vt 0.976607 0.868731
vt 1.000000 0.252538
vt 0.859645 0.505076
vt 0.859645 0.252538
vt 0.000000 0.928571
vt 0.859645 0.989950
vt 0.578935 0.252538
vt 0.719290 0.252538
vt 0.719290 0.757615
vt 0.859645 0.505076
vt 0.859645 0.505076
vt 0.578935 0.071429
vt 0.496230 1.000000
vt 0.578935 0.428571
vt 0.859645 0.000000
vt 1.000000 0.505076
vt 0.082705 1.000000
vt 0.976607 0.989950
s 1
g default
f 11/1/1 19/2/1 21/3/1
f 15/4/1 23/5/1 17/6/1
f 22/7/2 5/8/2 20/9/2
f 24/10/3 16/11/3 18/12/3
f 3/13/1 7/14/1 4/15/1
f 1/16/3 5/15/3 2/17/3
f 23/18/4 7/19/4 17/11/4
f 7/20/5 19/21/5 17/22/5
f 3/23/6 23/24/6 21/25/6
f 22/26/6 1/27/6 2/28/6
f 21/25/6 24/29/6 22/26/6
f 11/30/6 22/26/6 12/31/6
f 18/32/5 5/33/5 6/34/5
f 17/22/5 20/35/5 18/32/5
f 6/36/4 24/37/4 18/38/4
f 15/39/5 18/32/5 16/40/5
f 19/21/5 9/41/5 20/35/5
f 20/42/3 12/43/3 22/44/3
f 13/45/4 16/17/4 14/46/4
f 3/47/2 19/48/2 8/49/2
f 23/24/6 14/50/6 24/29/6
f 10/46/2 12/51/2 9/45/2
f 11/1/1 10/52/1 19/2/1
f 15/4/1 13/53/1 23/5/1
f 22/7/2 2/54/2 5/8/2
f 24/10/3 14/18/3 16/11/3
f 3/13/1 8/55/1 7/14/1
f 1/16/3 6/13/3 5/15/3
f 23/18/4 4/56/4 7/19/4
f 7/20/5 8/57/5 19/21/5
f 3/23/6 4/58/6 23/24/6
f 22/26/6 24/29/6 1/27/6
f 21/25/6 23/24/6 24/29/6
f 11/30/6 21/25/6 22/26/6
f 18/32/5 20/35/5 5/33/5
f 17/22/5 19/21/5 20/35/5
f 6/36/4 1/55/4 24/37/4
f 15/39/5 17/22/5 18/32/5
f 19/21/5 10/59/5 9/41/5
f 20/42/3 9/60/3 12/43/3
f 13/45/4 15/16/4 16/17/4
f 3/47/2 21/61/2 19/48/2
f 23/24/6 13/62/6 14/50/6
f 10/46/2 11/63/2 12/51/2
